<?xml version="1.0" encoding="UTF-8"?>
<svg version="1.1" xmlns="http://www.w3.org/2000/svg" width="397" height="190">
<path d="M0 0 C11.22 0 22.44 0 34 0 C36.52504838 3.36673117 38.01866055 5.97815544 39.671875 9.76953125 C40.16751953 10.8975415 40.66316406 12.02555176 41.17382812 13.18774414 C41.69396484 14.38391357 42.21410156 15.58008301 42.75 16.8125 C43.83612925 19.2875215 44.92601636 21.7608837 46.015625 24.234375 C46.53576172 25.41708984 47.05589844 26.59980469 47.59179688 27.81835938 C49.68989526 32.55872314 51.88017532 37.24993008 54.09375 41.9375 C55.70005327 45.34372346 57.27337438 48.76457188 58.84375 52.1875 C63.5347585 62.40887559 68.22978896 72.59796459 73.33984375 82.6171875 C76.48282152 89.0214669 79.30465007 95.57474049 82.1496582 102.11572266 C83.04763568 104.10555617 84.01171069 106.05365586 85 108 C85.33 108 85.66 108 86 108 C85.99907821 107.44947244 85.99815641 106.89894487 85.99720669 106.33173466 C85.9751501 92.95402992 85.95865155 79.57632836 85.94818783 66.19860935 C85.94295832 59.7293232 85.93585944 53.26005011 85.92456055 46.79077148 C85.91373408 40.553297 85.90772368 34.31583513 85.90512276 28.07835197 C85.90326807 25.69279723 85.89964664 23.30724321 85.89426994 20.9216938 C85.88706271 17.59304409 85.88600892 14.26444721 85.88647461 10.93579102 C85.88287933 9.93885727 85.87928406 8.94192352 85.87557983 7.91477966 C85.8769545 7.01309052 85.87832916 6.11140137 85.87974548 5.18238831 C85.87882369 4.3942553 85.8779019 3.6061223 85.87695217 2.79410648 C86 1 86 1 87 0 C89.43660446 -0.10082764 91.84424701 -0.13972603 94.28125 -0.1328125 C95.00993286 -0.13376923 95.73861572 -0.13472595 96.48937988 -0.13571167 C98.0327971 -0.13639335 99.57621717 -0.13453988 101.11962891 -0.13037109 C103.489974 -0.12502262 105.86012959 -0.13031642 108.23046875 -0.13671875 C109.72656292 -0.13605797 111.22265697 -0.1347768 112.71875 -0.1328125 C113.43228638 -0.13483673 114.14582275 -0.13686096 114.88098145 -0.13894653 C119.88504809 -0.11495191 119.88504809 -0.11495191 121 1 C121.13568319 4.66344611 121.16461426 7.50615721 120 11 C119.90868771 13.73261378 119.87399347 16.43920497 119.88647461 19.17163086 C119.88632858 20.00445084 119.88618256 20.83727081 119.8860321 21.69532776 C119.88672942 24.45185947 119.89451572 27.20832381 119.90234375 29.96484375 C119.90420923 31.87911441 119.90563252 33.79338555 119.90663147 35.70765686 C119.91045185 40.75150873 119.92027461 45.79533186 119.93133545 50.83917236 C119.94153926 55.96764744 119.94613235 61.09612708 119.95117188 66.22460938 C119.95997288 74.50907238 119.97231313 82.79352127 119.9888916 91.07797241 C119.99838004 95.83664076 120.00337191 100.59511669 119.98413086 105.35375977 C119.9662334 110.07201526 119.95460949 114.79026562 119.94506836 119.50854492 C119.94001834 121.54631055 119.93317925 123.58407252 119.92456055 125.62182617 C119.91245841 128.56169521 119.90676577 131.50151689 119.90234375 134.44140625 C119.89718246 135.35394669 119.89202118 136.26648712 119.88670349 137.2066803 C119.88659019 138.47831276 119.88659019 138.47831276 119.88647461 139.77563477 C119.884254 140.52079849 119.88203339 141.26596222 119.87974548 142.03370667 C119.92834658 144.21458422 119.92834658 144.21458422 121 147 C120.76087561 148.57138888 120.51869692 150.14236946 120.26171875 151.7109375 C119.53360084 158.07925233 119.46686765 164.8206351 120.6875 171.125 C121 174 121 174 119.5625 175.9375 C119.046875 176.288125 118.53125 176.63875 118 177 C117.34 176.67 116.68 176.34 116 176 C114.18364237 175.92690714 112.36458008 175.91638436 110.546875 175.9375 C109.45246094 175.94523438 108.35804688 175.95296875 107.23046875 175.9609375 C104.92577928 175.98680382 102.62109173 176.0128431 100.31640625 176.0390625 C99.21683594 176.04679688 98.11726563 176.05453125 96.984375 176.0625 C95.98116211 176.07410156 94.97794922 176.08570313 93.94433594 176.09765625 C87.86627013 175.89606203 87.86627013 175.89606203 85 175 C83.43139881 172.82216444 82.43764213 171.07867089 81.37109375 168.66796875 C81.05962906 168.01274734 80.74816437 167.35752594 80.42726135 166.68244934 C79.40900903 164.52689251 78.42344385 162.35800022 77.4375 160.1875 C76.73571416 158.6859172 76.03191599 157.18527335 75.32617188 155.68554688 C73.53485327 151.86583465 71.76966828 148.03466863 70.01141357 144.199646 C68.4718323 140.85132848 66.90992084 137.51355925 65.34765625 134.17578125 C62.66812511 128.44231469 60.01117605 122.69863691 57.36181641 116.95117188 C52.42039136 106.2426839 47.36674244 95.60415843 42.0546875 85.07421875 C39.35602411 79.72306682 36.68020936 74.36041872 34 69 C34 103.98 34 138.96 34 175 C22.74932101 176.40633487 11.33823423 176 0 176 C0 117.92 0 59.84 0 0 Z " fill="#53A0A2" transform="translate(129,9)"/>
<path d="M0 0 C0.495 1.485 0.495 1.485 1 3 C2.216875 3.061875 3.43375 3.12375 4.6875 3.1875 C18.54561664 4.81658895 30.44846858 12.27682155 39.375 22.8125 C48.63387698 35.28599747 51.47392943 47.73929429 53 63 C41.45 63 29.9 63 18 63 C17 60 17 60 17.1875 56.9375 C16.88212154 50.52455242 14.70119374 45.17374756 10.75 40.125 C3.73500045 34.70431853 -3.10483456 32.41671046 -12 33 C-19.35328161 34.58737508 -25.48155795 36.78199072 -30.25 42.875 C-36.33581563 53.74252791 -35.16137796 66.91684373 -35.16796875 79.0390625 C-35.17119311 80.45527172 -35.17455801 81.87148063 -35.17805481 83.28768921 C-35.18399268 86.23411837 -35.18590002 89.18051842 -35.18530273 92.12695312 C-35.18520082 95.87657611 -35.19890697 99.626011 -35.21607494 103.37558937 C-35.22725891 106.29262123 -35.22922007 109.2096083 -35.22869301 112.12665939 C-35.22986142 113.50836211 -35.23421798 114.89006644 -35.24202538 116.27174759 C-35.35646599 132.44205997 -35.35646599 132.44205997 -29 147 C-21.64859363 154.20726114 -14.17433901 155.21765023 -4.18359375 155.265625 C0.24956462 154.89574185 3.80509283 154.19490717 7 151 C7.66 150.87625 8.32 150.7525 9 150.625 C11.15337859 150.2033623 11.15337859 150.2033623 11.99609375 148.22265625 C12.32738281 147.48917969 12.65867187 146.75570312 13 146 C13.34160156 145.32582031 13.68320312 144.65164062 14.03515625 143.95703125 C17.23311408 137.28144627 18.84264079 131.26654313 17 124 C17.4375 121.25 17.4375 121.25 18 119 C17.34 119 16.68 119 16 119 C15.67 118.01 15.34 117.02 15 116 C9.555 115.505 9.555 115.505 4 115 C3.67 115.66 3.34 116.32 3 117 C2.34 116.67 1.68 116.34 1 116 C-0.98 116 -2.96 116 -5 116 C-5 106.43 -5 96.86 -5 87 C13.81 87 32.62 87 52 87 C52.061875 93.765 52.12375 100.53 52.1875 107.5 C52.22846802 110.64885742 52.22846802 110.64885742 52.27026367 113.86132812 C52.41749493 133.30634719 50.49673029 151.89998641 37 167 C36.45472656 167.62648437 35.90945313 168.25296875 35.34765625 168.8984375 C30.54559205 174.07336786 24.31323537 179.15209903 17.2578125 180.5390625 C16.51273437 180.69117188 15.76765625 180.84328125 15 181 C14.67 181.66 14.34 182.32 14 183 C-2.98777372 188.0397393 -24.00761534 186.77073139 -39.75 178.75 C-41.18742934 177.86624715 -42.60391017 176.94771061 -44 176 C-44.80953125 175.45859375 -45.6190625 174.9171875 -46.453125 174.359375 C-58.15993513 165.81268539 -65.97060703 152.87092084 -68.62834167 138.63414001 C-69.88078532 129.40926361 -70.31120472 120.31253287 -70.30078125 111.00390625 C-70.30468638 109.51667668 -70.30902463 108.0294482 -70.31376648 106.54222107 C-70.32115423 103.45055498 -70.32099182 100.35900324 -70.31567383 97.26733398 C-70.30988082 93.35349484 -70.3268427 89.4401292 -70.3500185 85.52636814 C-70.36492151 82.46239093 -70.3656055 79.39852357 -70.36250877 76.33451653 C-70.36301344 74.89357502 -70.36808521 73.4526259 -70.37832069 72.01172066 C-70.50726794 51.3344269 -66.69415686 33.33033766 -52.3125 17.8125 C-43.98610452 9.886412 -34.02099136 5.75154952 -23 3 C-22.24203125 2.80277344 -21.4840625 2.60554687 -20.703125 2.40234375 C-16.69724443 1.80609274 -12.73070516 1.89601486 -8.6875 1.9375 C-7.85154297 1.94201172 -7.01558594 1.94652344 -6.15429688 1.95117188 C-4.10283351 1.96289452 -2.05140727 1.98082797 0 2 C0 1.34 0 0.68 0 0 Z " fill="#54A2A4" transform="translate(340,3)"/>
<path d="M0 0 C7.23672719 -0.02566112 14.47344237 -0.0429953 21.71020508 -0.05493164 C24.16463662 -0.05991542 26.61906527 -0.06670486 29.07348633 -0.07543945 C42.75278696 -0.12284987 56.3573613 -0.07440473 70 1 C70.495 1.99 70.495 1.99 71 3 C72.41732474 3.57346682 73.86063181 4.08317509 75.3125 4.5625 C87.42292757 9.27499828 96.5745092 18.04301862 102.3046875 29.640625 C105.87984573 38.14793583 107.3700119 46.07060034 107.3125 55.25 C107.30512817 56.63989136 107.30512817 56.63989136 107.29760742 58.05786133 C107.01957045 74.35082782 101.66001106 86.61619902 90 98 C81.88208445 105.61783861 71.38148827 109.39446365 60.33984375 109.859375 C58.05499609 109.9149237 58.05499609 109.9149237 56.13793945 110.51635742 C53.78728291 111.04812065 51.85546827 111.02499469 49.453125 110.87890625 C48.60878906 110.83056641 47.76445313 110.78222656 46.89453125 110.73242188 C46.02183594 110.67634766 45.14914063 110.62027344 44.25 110.5625 C43.36183594 110.51029297 42.47367188 110.45808594 41.55859375 110.40429688 C39.37200804 110.27498267 37.18592106 110.14003358 35 110 C35.33 110.99 35.66 111.98 36 113 C35.5625 115.6875 35.5625 115.6875 35 118 C34.67 118 34.34 118 34 118 C34 134.17 34 150.34 34 167 C34.33 167 34.66 167 35 167 C35.3125 169.75 35.3125 169.75 35 173 C32.24308334 175.91464989 30.63416093 176.92610384 26.6184082 177.39404297 C25.35859131 177.34393066 24.09877441 177.29381836 22.80078125 177.2421875 C22.12452194 177.21907501 21.44826263 177.19596252 20.75151062 177.17214966 C19.32995342 177.11940091 17.90873654 177.05662762 16.48803711 176.984375 C14.30937211 176.87484275 12.13137993 176.79819756 9.95117188 176.7265625 C-0.69972287 176.30027713 -0.69972287 176.30027713 -3 174 C-2.34 174 -1.68 174 -1 174 C-1.00092179 173.12755268 -1.00184359 172.25510536 -1.00279331 171.35622025 C-1.02486425 150.14131782 -1.04141924 128.92641737 -1.05181217 107.71150589 C-1.05697152 97.45219765 -1.06400737 87.19289707 -1.07543945 76.93359375 C-1.08539729 67.9930479 -1.09185606 59.0525076 -1.09408849 50.11195636 C-1.09539372 45.3767063 -1.09846778 40.6414721 -1.10573006 35.90622711 C-1.11250759 31.45103753 -1.11461341 26.99587037 -1.11310768 22.54067612 C-1.11338323 20.90399682 -1.11537809 19.26731678 -1.11920547 17.63064194 C-1.12416975 15.39869208 -1.12298814 13.16682726 -1.12025452 10.93487549 C-1.12117631 9.6849242 -1.1220981 8.43497292 -1.12304783 7.14714432 C-1.02175007 4.55629279 -0.77233447 2.45676205 0 0 Z M33 28 C33 45.82 33 63.64 33 82 C51.38259473 82.97589267 51.38259473 82.97589267 67.2734375 75.83203125 C72.82159187 69.94496247 73.99214901 62.21305514 74.00390625 54.40625 C73.61164334 45.9428805 71.05085504 39.33465551 65.3125 33.0625 C56.30861826 27.45630948 47.2955448 27.6630549 37 28 C35.66666667 28 34.33333333 28 33 28 Z " fill="#54A2A4" transform="translate(5,9)"/>
<path d="M0 0 C0.33 0 0.66 0 1 0 C1 55.77 1 111.54 1 169 C10.9 169 20.8 169 31 169 C31 147.22 31 125.44 31 103 C41.89 103 52.78 103 64 103 C64 103.33 64 103.66 64 104 C54.27452886 106.7103772 44.94406033 105.75550356 35 105 C35.33 105.99 35.66 106.98 36 108 C35.5625 110.6875 35.5625 110.6875 35 113 C34.67 113 34.34 113 34 113 C34 129.17 34 145.34 34 162 C34.33 162 34.66 162 35 162 C35.3125 164.75 35.3125 164.75 35 168 C32.24308334 170.91464989 30.63416093 171.92610384 26.6184082 172.39404297 C25.35859131 172.34393066 24.09877441 172.29381836 22.80078125 172.2421875 C22.12452194 172.21907501 21.44826263 172.19596252 20.75151062 172.17214966 C19.32995342 172.11940091 17.90873654 172.05662762 16.48803711 171.984375 C14.30937211 171.87484275 12.13137993 171.79819756 9.95117188 171.7265625 C-0.69972287 171.30027713 -0.69972287 171.30027713 -3 169 C-2.34 169 -1.68 169 -1 169 C-1.00092179 168.14724582 -1.00184359 167.29449163 -1.00279331 166.41589642 C-1.02485872 145.6853665 -1.04141654 124.95483861 -1.05181217 104.22429943 C-1.05697279 94.19925198 -1.06401104 84.17421235 -1.07543945 74.14916992 C-1.08539343 65.41335858 -1.09185514 56.6775529 -1.09408849 47.94173604 C-1.09539438 43.31438801 -1.09847259 38.6870562 -1.10573006 34.05971336 C-1.1125015 29.70712373 -1.11461465 25.35455706 -1.11310768 21.00196266 C-1.1133835 19.40195211 -1.11538197 17.80194082 -1.11920547 16.20193481 C-1.12416025 14.02218323 -1.12299165 11.84251899 -1.12025452 9.6627655 C-1.12117631 8.4413898 -1.1220981 7.2200141 -1.12304783 5.96162701 C-1 3 -1 3 0 0 Z " fill="#8F9D9D" transform="translate(5,14)"/>
<path d="M0 0 C7.23672719 -0.02566112 14.47344237 -0.0429953 21.71020508 -0.05493164 C24.16463662 -0.05991542 26.61906527 -0.06670486 29.07348633 -0.07543945 C42.75278696 -0.12284987 56.3573613 -0.07440473 70 1 C70.495 2.485 70.495 2.485 71 4 C70.67 4.66 70.34 5.32 70 6 C67.36 5.67 64.72 5.34 62 5 C32.3 4.505 32.3 4.505 2 4 C2 59.77 2 115.54 2 173 C1.67 173 1.34 173 1 173 C1 117.56 1 62.12 1 5 C0.34 4.67 -0.32 4.34 -1 4 C-0.67 2.68 -0.34 1.36 0 0 Z " fill="#6FB5B5" transform="translate(5,9)"/>
<path d="M0 0 C18.81 0 37.62 0 57 0 C57.04125 7.0125 57.0825 14.025 57.125 21.25 C57.14320801 23.45848633 57.16141602 25.66697266 57.18017578 27.94238281 C57.18601788 29.69596107 57.19111411 31.44954204 57.1953125 33.203125 C57.20554443 34.1111084 57.21577637 35.0190918 57.22631836 35.95458984 C57.22656006 36.82712402 57.22680176 37.6996582 57.22705078 38.59863281 C57.231492 39.35364075 57.23593323 40.10864868 57.24050903 40.88653564 C57 43 57 43 55 47 C55 32.15 55 17.3 55 2 C37.51 2 20.02 2 2 2 C2 10.25 2 18.5 2 27 C5.96 27 9.92 27 14 27 C14 27.33 14 27.66 14 28 C12.35 28 10.7 28 9 28 C8.67 28.66 8.34 29.32 8 30 C7.34 29.67 6.68 29.34 6 29 C4.02 29 2.04 29 0 29 C0 19.43 0 9.86 0 0 Z " fill="#879C9C" transform="translate(335,90)"/>
<path d="M0 0 C17.49 0 34.98 0 53 0 C53.33 16.17 53.66 32.34 54 49 C51 46 51 46 50.67720032 43.96882629 C50.71384041 42.80633614 50.71384041 42.80633614 50.7512207 41.62036133 C50.77188599 40.72740356 50.79255127 39.8344458 50.81384277 38.91442871 C50.85078247 37.97973755 50.88772217 37.04504639 50.92578125 36.08203125 C50.94846069 35.22009155 50.97114014 34.35815186 50.99450684 33.47009277 C51.08373493 30.25038673 51.19972817 27.03146741 51.3125 23.8125 C51.539375 16.614375 51.76625 9.41625 52 2 C35.17 2 18.34 2 1 2 C1 9.26 1 16.52 1 24 C7.93 24 14.86 24 22 24 C22 24.33 22 24.66 22 25 C19.36 25 16.72 25 14 25 C13.67 25.66 13.34 26.32 13 27 C12.67 26.67 12.34 26.34 12 26 C8.04 25.67 4.08 25.34 0 25 C0 16.75 0 8.5 0 0 Z " fill="#5BAFB0" transform="translate(337,92)"/>
<path d="M0 0 C0.71353638 0.00202423 1.42707275 0.00404846 2.16223145 0.00613403 C2.89091431 0.00517731 3.61959717 0.00422058 4.37036133 0.00323486 C5.91377855 0.00255318 7.45719861 0.00440666 9.00061035 0.00857544 C11.37095544 0.01392391 13.74111104 0.00863011 16.1114502 0.00222778 C17.60754437 0.00288857 19.10363842 0.00416973 20.59973145 0.00613403 C21.31326782 0.0041098 22.0268042 0.00208557 22.76196289 0 C27.76602953 0.02399462 27.76602953 0.02399462 28.88098145 1.13894653 C28.92191082 3.47192086 28.92339868 5.80599878 28.88098145 8.13894653 C26.88098145 5.13894653 26.88098145 5.13894653 25.88098145 2.13894653 C25.88098145 17.64894653 25.88098145 33.15894653 25.88098145 49.13894653 C25.55098145 49.13894653 25.22098145 49.13894653 24.88098145 49.13894653 C24.28220281 34.13285319 23.73013665 19.15809908 23.88098145 4.13894653 C22.62438721 4.10921753 22.62438721 4.10921753 21.34240723 4.07888794 C18.23732311 4.00084041 15.13263606 3.91415018 12.0279541 3.82156372 C10.02211173 3.76440617 8.01599227 3.71726057 6.0098877 3.67019653 C4.75305176 3.63152466 3.49621582 3.59285278 2.20129395 3.55300903 C1.0387207 3.52158813 -0.12385254 3.49016724 -1.32165527 3.45779419 C-4.11901855 3.13894653 -4.11901855 3.13894653 -6.11901855 1.13894653 C-4.41408974 -0.56598228 -2.27367595 0.01090233 0 0 Z " fill="#87C0C0" transform="translate(221.1190185546875,8.861053466796875)"/>
<path d="M0 0 C1.45823212 -0.0270043 2.91660675 -0.04639787 4.375 -0.0625 C5.18710937 -0.07410156 5.99921875 -0.08570312 6.8359375 -0.09765625 C9 0 9 0 11 1 C11.0270817 3.72923388 11.04687847 6.45819637 11.0625 9.1875 C11.07087891 9.95642578 11.07925781 10.72535156 11.08789062 11.51757812 C11.10491934 15.48526789 10.98604115 19.12571234 10 23 C9.67 23 9.34 23 9 23 C8.87625 24.134375 8.7525 25.26875 8.625 26.4375 C8.41875 27.613125 8.2125 28.78875 8 30 C7.34 30.33 6.68 30.66 6 31 C4.92952648 26.96342278 5.17611641 24.0105745 6 19.9375 C6.75974484 16.17201463 7.09188723 13.67416067 6 10 C6.4375 7.25 6.4375 7.25 7 5 C6.34 5 5.68 5 5 5 C4.67 4.01 4.34 3.02 4 2 C1.99983534 0.79117904 1.99983534 0.79117904 0 0 Z " fill="#59ABAC" transform="translate(351,117)"/>
<path d="M0 0 C0.33 0 0.66 0 1 0 C1 2.31 1 4.62 1 7 C1.66 7.33 2.32 7.66 3 8 C3.04963288 13.56842771 3.08582963 19.13672511 3.10986328 24.70532227 C3.11988815 26.59759771 3.13351155 28.48985778 3.15087891 30.38208008 C3.17528222 33.1102275 3.18651845 35.83816915 3.1953125 38.56640625 C3.20563507 39.40522842 3.21595764 40.2440506 3.22659302 41.10829163 C3.22754087 46.1298712 2.61591021 50.23893583 1 55 C0.67 55 0.34 55 0 55 C0 36.85 0 18.7 0 0 Z " fill="#468382" transform="translate(302,83)"/>
<path d="M0 0 C0.33 0 0.66 0 1 0 C1 1.65 1 3.3 1 5 C1.639375 4.67 2.27875 4.34 2.9375 4 C7.01236841 2.66943072 10.75190425 2.83340801 15 3 C15 3.66 15 4.32 15 5 C20.61 5 26.22 5 32 5 C32.33 4.01 32.66 3.02 33 2 C33.495 3.98 33.495 3.98 34 6 C26.81917746 7.12866889 19.75794868 7.11434249 12.5 7.0625 C10.69402344 7.05573242 10.69402344 7.05573242 8.8515625 7.04882812 C5.90098927 7.0371195 2.95052141 7.02071995 0 7 C0 4.69 0 2.38 0 0 Z " fill="#789897" transform="translate(129,178)"/>
<path d="M0 0 C0.33 0.99 0.66 1.98 1 3 C2.65 3 4.3 3 6 3 C2.87279116 5.08480589 1.98738872 5.26793293 -1.59765625 5.37890625 C-2.92313477 5.43014648 -2.92313477 5.43014648 -4.27539062 5.48242188 C-5.19513672 5.50884766 -6.11488281 5.53527344 -7.0625 5.5625 C-8.88685316 5.62233573 -10.7110874 5.68595336 -12.53515625 5.75390625 C-13.343479 5.77783447 -14.15180176 5.8017627 -14.98461914 5.82641602 C-17.06975578 5.88120644 -17.06975578 5.88120644 -19 7 C-21.125 6.0625 -21.125 6.0625 -23 5 C-23 4.34 -23 3.68 -23 3 C-18.22907044 1.76597138 -13.57530554 1.88734888 -8.6875 1.9375 C-7.85154297 1.94201172 -7.01558594 1.94652344 -6.15429688 1.95117188 C-4.10283351 1.96289452 -2.05140727 1.98082797 0 2 C0 1.34 0 0.68 0 0 Z " fill="#8FA9A8" transform="translate(340,3)"/>
<path d="M0 0 C0.33 0 0.66 0 1 0 C1 2.31 1 4.62 1 7 C10.24 7 19.48 7 29 7 C29 5.35 29 3.7 29 2 C29.33 2 29.66 2 30 2 C30 4.31 30 6.62 30 9 C14.16 9.495 14.16 9.495 -2 10 C-1.34 9.67 -0.68 9.34 0 9 C0 6.03 0 3.06 0 0 Z " fill="#5BADAE" transform="translate(360,56)"/>
<path d="M0 0 C1.63474626 3.26949252 1.01418775 6.77156225 0.9375 10.37109375 C0.87393186 13.11111337 0.87393186 13.11111337 2 16 C1.76087561 17.57138888 1.51869692 19.14236946 1.26171875 20.7109375 C0.41825576 28.08809145 0.64246489 35.70324876 2 43 C0.515 43.495 0.515 43.495 -1 44 C-1.02464513 37.8944529 -1.04283371 31.78893449 -1.05493164 25.68334961 C-1.05997288 23.60456844 -1.06680574 21.52579084 -1.07543945 19.44702148 C-1.08751422 16.46597414 -1.09323024 13.48497351 -1.09765625 10.50390625 C-1.10539818 9.10078941 -1.10539818 9.10078941 -1.11329651 7.66932678 C-1.11337204 6.80850998 -1.11344757 5.94769318 -1.11352539 5.06079102 C-1.115746 4.29912125 -1.11796661 3.53745148 -1.12025452 2.75270081 C-1 1 -1 1 0 0 Z " fill="#849493" transform="translate(248,140)"/>
<path d="M0 0 C0.66 0 1.32 0 2 0 C2.09796875 0.6290625 2.1959375 1.258125 2.296875 1.90625 C3.67932297 9.81957287 5.35428702 16.20343293 11.8125 21.375 C15.43723512 23.87763138 18.70544864 25.1053018 23 26 C21.68 26.99 20.36 27.98 19 29 C17.55962331 28.06692579 16.12281015 27.12834923 14.6875 26.1875 C13.88699219 25.66542969 13.08648437 25.14335937 12.26171875 24.60546875 C10 23 10 23 8.39453125 21.36328125 C6.93147582 19.73435284 6.93147582 19.73435284 4 19 C1.5705484 15.3558226 1.83820425 13.28758728 2 9 C1.34 9 0.68 9 0 9 C0 6.03 0 3.06 0 0 Z " fill="#669191" transform="translate(303,132)"/>
<path d="M0 0 C0.33 0.99 0.66 1.98 1 3 C0.67 3.66 0.34 4.32 0 5 C-8.25 4.34 -16.5 3.68 -25 3 C-25 2.34 -25 1.68 -25 1 C-16.64399592 -0.10102642 -8.41192037 -0.10094304 0 0 Z " fill="#63A3A4" transform="translate(75,10)"/>
<path d="M0 0 C-2.43319829 2.94545056 -4.32413607 3.32286717 -8 4 C-8.33 4.66 -8.66 5.32 -9 6 C-11.328125 6.6328125 -11.328125 6.6328125 -14.25 7.125 C-15.20390625 7.29257813 -16.1578125 7.46015625 -17.140625 7.6328125 C-19.80099245 7.97444439 -22.32205635 8.06841462 -25 8 C-25 7.34 -25 6.68 -25 6 C-23.35 6 -21.7 6 -20 6 C-20 5.34 -20 4.68 -20 4 C-19.15695312 3.79503906 -18.31390625 3.59007812 -17.4453125 3.37890625 C-16.34960938 3.10949219 -15.25390625 2.84007812 -14.125 2.5625 C-13.03445313 2.29566406 -11.94390625 2.02882812 -10.8203125 1.75390625 C-3.93875 -0.085625 -3.93875 -0.085625 0 0 Z " fill="#70A09F" transform="translate(363,180)"/>
<path d="M0 0 C2.66821352 0.07847687 4.46046686 0.55015907 6.52734375 2.2734375 C11.94569337 8.14676305 15.22467882 15.07286425 15.25 23.125 C15.1675 24.40375 15.085 25.6825 15 27 C14.01 26.34 13.02 25.68 12 25 C12.03380668 23.37727926 12.07277337 21.75446649 12.140625 20.1328125 C11.76522006 14.43917094 9.1249095 9.2895304 5.4375 5.0625 C4.633125 4.381875 3.82875 3.70125 3 3 C2 2 1 1 0 0 Z " fill="#759190" transform="translate(345,38)"/>
<path d="M0 0 C3.10050906 1.40806116 5.4648492 3.12270465 8.0625 5.3125 C13.93924337 9.97302992 20.64206714 13.38777229 28 15 C28 15.66 28 16.32 28 17 C16.84070304 15.05155132 8.23767898 9.79053983 0 2 C0 1.34 0 0.68 0 0 Z " fill="#6B8785" transform="translate(286,169)"/>
<path d="M0 0 C0.33 0 0.66 0 1 0 C1.33 16.17 1.66 32.34 2 49 C-1 46 -1 46 -1.32279968 43.89289856 C-1.29837296 43.08237534 -1.27394623 42.27185211 -1.2487793 41.43676758 C-1.22853195 40.51603958 -1.20828461 39.59531158 -1.18742371 38.64668274 C-1.15006607 37.65597275 -1.11270844 36.66526276 -1.07421875 35.64453125 C-1.04777786 34.62775803 -1.02133698 33.6109848 -0.99409485 32.56340027 C-0.90625062 29.31250835 -0.79712817 26.06272322 -0.6875 22.8125 C-0.62424978 20.61006584 -0.56238345 18.40759146 -0.50195312 16.20507812 C-0.35069695 10.80281604 -0.18196149 5.40131028 0 0 Z " fill="#66C2C3" transform="translate(389,92)"/>
<path d="M0 0 C0.66 0.33 1.32 0.66 2 1 C1.23997083 2.31878578 0.46656347 3.6298684 -0.3125 4.9375 C-0.74175781 5.66839844 -1.17101562 6.39929688 -1.61328125 7.15234375 C-3 9 -3 9 -6 10 C-7.68749704 12.54672255 -7.68749704 12.54672255 -9.1875 15.5625 C-9.71730469 16.57441406 -10.24710937 17.58632813 -10.79296875 18.62890625 C-11.19128906 19.41136719 -11.58960938 20.19382812 -12 21 C-12.69140625 19.3359375 -12.69140625 19.3359375 -13 17 C-9.88851552 10.41916062 -5.37418802 4.849877 0 0 Z " fill="#688E8D" transform="translate(289,20)"/>
<path d="M0 0 C2.97 0 5.94 0 9 0 C9 6.6 9 13.2 9 20 C8.67 20 8.34 20 8 20 C7.63355422 18.44033408 7.28239138 16.87707349 6.9375 15.3125 C6.74027344 14.44238281 6.54304688 13.57226562 6.33984375 12.67578125 C5.97967721 9.83998724 6.29090031 7.75210018 7 5 C6.34 5 5.68 5 5 5 C4.67 4.01 4.34 3.02 4 2 C2.68 1.34 1.36 0.68 0 0 Z " fill="#839594" transform="translate(351,117)"/>
<path d="M0 0 C0.66 0 1.32 0 2 0 C1.70544888 7.65832917 -1.37172342 13.34261178 -5 20 C-5.33 20 -5.66 20 -6 20 C-5.125 13.25 -5.125 13.25 -4 11 C-3.34 11 -2.68 11 -2 11 C-1.93941406 10.37351563 -1.87882812 9.74703125 -1.81640625 9.1015625 C-1.73261719 8.28429687 -1.64882813 7.46703125 -1.5625 6.625 C-1.48128906 5.81289062 -1.40007812 5.00078125 -1.31640625 4.1640625 C-1 2 -1 2 0 0 Z " fill="#6B9898" transform="translate(387,144)"/>
<path d="M0 0 C0.66 0 1.32 0 2 0 C3.53668415 3.26361594 5.05154852 6.53690088 6.5625 9.8125 C7.21895508 11.2056543 7.21895508 11.2056543 7.88867188 12.62695312 C8.29794922 13.51962891 8.70722656 14.41230469 9.12890625 15.33203125 C9.51119385 16.15421143 9.89348145 16.9763916 10.28735352 17.82348633 C11 20 11 20 10 23 C9.16180842 21.37750059 8.3295884 19.75191503 7.5 18.125 C7.0359375 17.22007813 6.571875 16.31515625 6.09375 15.3828125 C5 13 5 13 5 11 C4.34 11 3.68 11 3 11 C2.896875 10.236875 2.79375 9.47375 2.6875 8.6875 C1.95635961 5.82940576 1.23048087 4.84257115 -1 3 C-0.67 2.01 -0.34 1.02 0 0 Z " fill="#699190" transform="translate(196,82)"/>
<path d="M0 0 C9.57 0 19.14 0 29 0 C25.87279116 2.08480589 24.98738872 2.26793293 21.40234375 2.37890625 C20.07686523 2.43014648 20.07686523 2.43014648 18.72460938 2.48242188 C17.80486328 2.50884766 16.88511719 2.53527344 15.9375 2.5625 C14.11314684 2.62233573 12.2889126 2.68595336 10.46484375 2.75390625 C9.25235962 2.78979858 9.25235962 2.78979858 8.01538086 2.82641602 C5.93024422 2.88120644 5.93024422 2.88120644 4 4 C1.875 3.0625 1.875 3.0625 0 2 C0 1.34 0 0.68 0 0 Z " fill="#72B7B8" transform="translate(317,6)"/>
<path d="M0 0 C3.16860855 2.65478014 4.50301588 5.83999806 6.1875 9.5625 C6.98220703 11.29693359 6.98220703 11.29693359 7.79296875 13.06640625 C9 16 9 16 9 18 C8.34 18 7.68 18 7 18 C4.69356237 15.41678985 3.70980347 13.34621636 3 10 C1.93163231 7.00857046 1.26263406 5.26263406 -1 3 C-0.67 2.01 -0.34 1.02 0 0 Z " fill="#6B9090" transform="translate(180,47)"/>
<path d="M0 0 C0.98484375 0.00902344 1.9696875 0.01804688 2.984375 0.02734375 C4.10585938 0.04474609 4.10585938 0.04474609 5.25 0.0625 C5.25 0.3925 5.25 0.7225 5.25 1.0625 C3.6 1.0625 1.95 1.0625 0.25 1.0625 C0.25 1.7225 0.25 2.3825 0.25 3.0625 C-4.04 3.0625 -8.33 3.0625 -12.75 3.0625 C-8.38228707 0.15069138 -5.19846409 -0.06188648 0 0 Z " fill="#528D8C" transform="translate(337.75,184.9375)"/>
<path d="M0 0 C7.92 0 15.84 0 24 0 C24 0.33 24 0.66 24 1 C17.73 1 11.46 1 5 1 C5 1.66 5 2.32 5 3 C4.01 3.33 3.02 3.66 2 4 C2 3.34 2 2.68 2 2 C1.34 2 0.68 2 0 2 C0 1.34 0 0.68 0 0 Z " fill="#6CAFAF" transform="translate(37,35)"/>
<path d="M0 0 C0.33 0 0.66 0 1 0 C1.99956022 5.33098784 2.01467144 9.64991422 1 15 C0.01 15.495 0.01 15.495 -1 16 C-2.03038433 12.0585998 -1.87693282 9.16384848 -1.0625 5.1875 C-0.86785156 4.21167969 -0.67320312 3.23585937 -0.47265625 2.23046875 C-0.31667969 1.49441406 -0.16070312 0.75835937 0 0 Z " fill="#80A8A8" transform="translate(358,132)"/>
<path d="M0 0 C1.64767247 0.28109113 3.29313145 0.57518526 4.9375 0.875 C5.85402344 1.03742188 6.77054687 1.19984375 7.71484375 1.3671875 C8.46894531 1.57601562 9.22304688 1.78484375 10 2 C10.33 2.66 10.66 3.32 11 4 C7.7 4 4.4 4 1 4 C0.67 2.68 0.34 1.36 0 0 Z " fill="#609A99" transform="translate(313,183)"/>
<path d="M0 0 C0.66 0 1.32 0 2 0 C2.66 3.96 3.32 7.92 4 12 C3.01 12.495 3.01 12.495 2 13 C2 11.68 2 10.36 2 9 C1.34 9 0.68 9 0 9 C0 6.03 0 3.06 0 0 Z " fill="#769B9B" transform="translate(303,132)"/>
<path d="M0 0 C-0.33 0.99 -0.66 1.98 -1 3 C-3.64 3.33 -6.28 3.66 -9 4 C-9.33 3.01 -9.66 2.02 -10 1 C-6.59437148 0.22157062 -3.49234244 -0.09978121 0 0 Z " fill="#74AAAA" transform="translate(78,114)"/>
<path d="M0 0 C3.66060821 0.58536753 5.54535164 2.083239 8.25 4.5625 C8.95640625 5.20316406 9.6628125 5.84382813 10.390625 6.50390625 C10.92171875 6.99761719 11.4528125 7.49132812 12 8 C11.34 8.66 10.68 9.32 10 10 C6.66666667 6.66666667 3.33333333 3.33333333 0 0 Z " fill="#759694" transform="translate(366,16)"/>
<path d="M0 0 C0.33 0.66 0.66 1.32 1 2 C0.67 2.66 0.34 3.32 0 4 C-2.64 3.67 -5.28 3.34 -8 3 C-5.45189726 -0.82215411 -4.39145359 -1.46381786 0 0 Z " fill="#80B0B1" transform="translate(75,11)"/>
<path d="M0 0 C0.33 0 0.66 0 1 0 C1.33 6.27 1.66 12.54 2 19 C-1 16 -1 16 -1.07421875 12.20703125 C-0.96143619 10.74085796 -0.83192243 9.27589543 -0.6875 7.8125 C-0.62626953 7.06291016 -0.56503906 6.31332031 -0.50195312 5.54101562 C-0.34891389 3.69277255 -0.17633121 1.8461665 0 0 Z " fill="#6FB8B9" transform="translate(389,122)"/>
<path d="M0 0 C2.27795022 2.27795022 3.05219877 3.93787293 4 7 C3.625 9.3125 3.625 9.3125 3 11 C2.34 10.67 1.68 10.34 1 10 C1 8.35 1 6.7 1 5 C0.34 4.67 -0.32 4.34 -1 4 C-0.67 2.68 -0.34 1.36 0 0 Z " fill="#7CA9A9" transform="translate(212,114)"/>
<path d="M0 0 C2.97722547 0.70333538 5.85256543 1.58248537 8.75 2.5625 C9.94882812 2.96662109 9.94882812 2.96662109 11.171875 3.37890625 C11.77515625 3.58386719 12.3784375 3.78882813 13 4 C11.68 4.99 10.36 5.98 9 7 C7.4972763 6.02501855 5.99788037 5.04490611 4.5 4.0625 C3.6646875 3.51722656 2.829375 2.97195312 1.96875 2.41015625 C1.3190625 1.94480469 0.669375 1.47945312 0 1 C0 0.67 0 0.34 0 0 Z " fill="#7A9C9C" transform="translate(313,154)"/>
<path d="M0 0 C0.33 0.99 0.66 1.98 1 3 C-0.14453125 4.82421875 -0.14453125 4.82421875 -1.8125 6.6875 C-2.35519531 7.31011719 -2.89789063 7.93273437 -3.45703125 8.57421875 C-5 10 -5 10 -7 10 C-7 9.34 -7 8.68 -7 8 C-6.34 8 -5.68 8 -5 8 C-4.731875 7.4225 -4.46375 6.845 -4.1875 6.25 C-2.98280141 3.9674132 -1.59201885 2.0262058 0 0 Z " fill="#618081" transform="translate(356,145)"/>
<path d="M0 0 C0.99 0.33 1.98 0.66 3 1 C2.6875 3.875 2.6875 3.875 2 7 C1.01 7.66 0.02 8.32 -1 9 C-1.125 2.25 -1.125 2.25 0 0 Z " fill="#528788" transform="translate(273,47)"/>
<path d="M0 0 C0.99 0.33 1.98 0.66 3 1 C0.19195732 3.96404505 -2.18315774 6.44499019 -6 8 C-4.768606 4.30581799 -2.79208646 2.64890254 0 0 Z " fill="#769D9C" transform="translate(370,172)"/>
<path d="M0 0 C0.33 0 0.66 0 1 0 C1.05447047 1.41623216 1.09300508 2.83308191 1.125 4.25 C1.14820313 5.03890625 1.17140625 5.8278125 1.1953125 6.640625 C1 9 1 9 -1 13 C-1.33 9.7 -1.66 6.4 -2 3 C-1.34 3 -0.68 3 0 3 C0 2.01 0 1.02 0 0 Z " fill="#567979" transform="translate(304,53)"/>
<path d="M0 0 C3.81684226 1.55500981 6.19195732 4.03595495 9 7 C4.68381834 7 3.07210341 4.86729652 0 2 C0 1.34 0 0.68 0 0 Z " fill="#769595" transform="translate(286,169)"/>
<path d="M0 0 C0.66 0.33 1.32 0.66 2 1 C-1.75 6.875 -1.75 6.875 -4 8 C-4.33 7.01 -4.66 6.02 -5 5 C-3.35 3.35 -1.7 1.7 0 0 Z " fill="#639493" transform="translate(289,20)"/>
<path d="M0 0 C0.66 0 1.32 0 2 0 C1.4140625 6.15234375 1.4140625 6.15234375 1 8 C0.01 8.495 0.01 8.495 -1 9 C-1.125 2.25 -1.125 2.25 0 0 Z " fill="#5A8E8D" transform="translate(387,144)"/>
<path d="M0 0 C0.33 0 0.66 0 1 0 C1.33 2.64 1.66 5.28 2 8 C0.02 7.34 -1.96 6.68 -4 6 C-4 5.34 -4 4.68 -4 4 C-3.01 3.67 -2.02 3.34 -1 3 C-0.67 2.01 -0.34 1.02 0 0 Z " fill="#6BA5A3" transform="translate(246,178)"/>
<path d="M0 0 C0.66 0 1.32 0 2 0 C2 3.63 2 7.26 2 11 C1.67 11 1.34 11 1 11 C0.63890458 9.35567294 0.28629924 7.7094792 -0.0625 6.0625 C-0.25972656 5.14597656 -0.45695312 4.22945312 -0.66015625 3.28515625 C-0.77230469 2.53105469 -0.88445312 1.77695313 -1 1 C-0.67 0.67 -0.34 0.34 0 0 Z " fill="#718483" transform="translate(358,126)"/>
<path d="M0 0 C0.99 0 1.98 0 3 0 C3.33 2.31 3.66 4.62 4 7 C2.68 6.34 1.36 5.68 0 5 C0 3.35 0 1.7 0 0 Z " fill="#79B4B4" transform="translate(78,67)"/>
<path d="M0 0 C0.66 1.32 1.32 2.64 2 4 C0 7 0 7 -2 8 C-1.125 1.125 -1.125 1.125 0 0 Z " fill="#6FAEAF" transform="translate(305,48)"/>
<path d="M0 0 C0.99 0.66 1.98 1.32 3 2 C2.67 2.66 2.34 3.32 2 4 C-1.0831351 2.80100302 -4.06279492 1.52299523 -7 0 C-4.28569464 -1.35715268 -2.88661718 -0.77445827 0 0 Z " fill="#72B0B1" transform="translate(69,38)"/>
<path d="M0 0 C0.33 0 0.66 0 1 0 C1 2.97 1 5.94 1 9 C0.67 9 0.34 9 0 9 C0 6.03 0 3.06 0 0 Z " fill="#FDFEFE" transform="translate(39,129)"/>
<path d="M0 0 C0.33 0 0.66 0 1 0 C1 1.98 1 3.96 1 6 C0.67 6 0.34 6 0 6 C0 4.02 0 2.04 0 0 Z " fill="#FDFEFE" transform="translate(393,90)"/>
<path d="M0 0 C0.33 0 0.66 0 1 0 C1 1.65 1 3.3 1 5 C0.34 3.68 -0.32 2.36 -1 1 C-0.67 0.67 -0.34 0.34 0 0 Z " fill="#FDFEFE" transform="translate(214,13)"/>
<path d="M0 0 C0.33 0 0.66 0 1 0 C1 1.65 1 3.3 1 5 C0.67 5 0.34 5 0 5 C0 3.35 0 1.7 0 0 Z " fill="#FDFEFE" transform="translate(214,61)"/>
<path d="M0 0 C0.33 0 0.66 0 1 0 C1 1.65 1 3.3 1 5 C0.67 5 0.34 5 0 5 C0 3.35 0 1.7 0 0 Z " fill="#FDFEFE" transform="translate(393,59)"/>
<path d="M0 0 C0.33 0 0.66 0 1 0 C1 1.65 1 3.3 1 5 C0.67 5 0.34 5 0 5 C0 3.35 0 1.7 0 0 Z " fill="#FDFEFE" transform="translate(39,48)"/>
<path d="M0 0 C1 4 1 4 1 4 Z " fill="#FDFEFE" transform="translate(39,166)"/>
<path d="M0 0 C1 4 1 4 1 4 Z " fill="#FDFEFE" transform="translate(39,161)"/>
<path d="M0 0 C4 1 4 1 4 1 Z " fill="#FDFEFE" transform="translate(329,157)"/>
<path d="M0 0 C0.66 0.33 1.32 0.66 2 1 C1.01 1 0.02 1 -1 1 C-0.67 0.67 -0.34 0.34 0 0 Z " fill="#FDFEFE" transform="translate(312,147)"/>
<path d="M0 0 C1 4 1 4 1 4 Z " fill="#FDFEFE" transform="translate(39,145)"/>
<path d="M0 0 C0.99 1.485 0.99 1.485 2 3 C1.34 3 0.68 3 0 3 C0 2.01 0 1.02 0 0 Z " fill="#FDFEFE" transform="translate(182,119)"/>
<path d="M0 0 C1 4 1 4 1 4 Z " fill="#FEFEFE" transform="translate(39,81)"/>
<path d="M0 0 C1 4 1 4 1 4 Z " fill="#FDFEFE" transform="translate(39,64)"/>
<path d="M0 0 C1 4 1 4 1 4 Z " fill="#FDFEFE" transform="translate(39,57)"/>
<path d="M0 0 C1 4 1 4 1 4 Z " fill="#FEFEFE" transform="translate(214,46)"/>
<path d="M0 0 C4 1 4 1 4 1 Z " fill="#FDFEFE" transform="translate(332,3)"/>
<path d="M0 0 C0.99 0.495 0.99 0.495 2 1 C1.01 1.495 1.01 1.495 0 2 C0 1.34 0 0.68 0 0 Z " fill="#FEFFFF" transform="translate(203,166)"/>
<path d="M0 0 C0.33 0.66 0.66 1.32 1 2 C0.34 1.67 -0.32 1.34 -1 1 C-0.67 0.67 -0.34 0.34 0 0 Z " fill="#FDFEFE" transform="translate(189,134)"/>
<path d="M0 0 C0.66 0 1.32 0 2 0 C1.67 0.66 1.34 1.32 1 2 C0.67 1.34 0.34 0.68 0 0 Z " fill="#FCFEFD" transform="translate(336,120)"/>
<path d="" fill="#FDFEFE" transform="translate(0,0)"/>
<path d="" fill="#FEFFFF" transform="translate(0,0)"/>
<path d="" fill="#FEFEFE" transform="translate(0,0)"/>
<path d="" fill="#FDFEFE" transform="translate(0,0)"/>
<path d="" fill="#FEFEFE" transform="translate(0,0)"/>
<path d="" fill="#FEFEFE" transform="translate(0,0)"/>
<path d="M0 0 C3 1 3 1 3 1 Z " fill="#FDFEFE" transform="translate(62,40)"/>
<path d="M0 0 C2 1 2 1 2 1 Z " fill="#FEFFFF" transform="translate(336,189)"/>
<path d="M0 0 C2 1 2 1 2 1 Z " fill="#FEFEFE" transform="translate(323,189)"/>
<path d="M0 0 C2 1 2 1 2 1 Z " fill="#FDFDFD" transform="translate(300,183)"/>
<path d="" fill="#FDFEFE" transform="translate(0,0)"/>
<path d="" fill="#FEFFFF" transform="translate(0,0)"/>
<path d="M0 0 C2 1 2 1 2 1 Z " fill="#FEFFFF" transform="translate(338,156)"/>
<path d="M0 0 C2 1 2 1 2 1 Z " fill="#FEFFFF" transform="translate(323,156)"/>
<path d="" fill="#FEFEFE" transform="translate(0,0)"/>
<path d="" fill="#FEFFFF" transform="translate(0,0)"/>
<path d="" fill="#FEFFFF" transform="translate(0,0)"/>
<path d="" fill="#FDFEFE" transform="translate(0,0)"/>
<path d="" fill="#FEFEFE" transform="translate(0,0)"/>
<path d="" fill="#FEFFFF" transform="translate(0,0)"/>
<path d="" fill="#FEFEFE" transform="translate(0,0)"/>
<path d="M0 0 C2 1 2 1 2 1 Z " fill="#FEFFFF" transform="translate(63,120)"/>
<path d="M0 0 C2 1 2 1 2 1 Z " fill="#FDFEFE" transform="translate(346,119)"/>
<path d="" fill="#FEFFFF" transform="translate(0,0)"/>
<path d="M0 0 C2 1 2 1 2 1 Z " fill="#FEFEFE" transform="translate(174,105)"/>
<path d="" fill="#FEFEFE" transform="translate(0,0)"/>
<path d="" fill="#FEFEFE" transform="translate(0,0)"/>
<path d="M0 0 C2 1 2 1 2 1 Z " fill="#FEFFFF" transform="translate(375,67)"/>
<path d="" fill="#FDFEFE" transform="translate(0,0)"/>
<path d="" fill="#FDFEFE" transform="translate(0,0)"/>
<path d="" fill="#FEFFFF" transform="translate(0,0)"/>
<path d="" fill="#FEFEFE" transform="translate(0,0)"/>
<path d="M0 0 C2 1 2 1 2 1 Z " fill="#FDFEFE" transform="translate(59,39)"/>
<path d="" fill="#FEFFFF" transform="translate(0,0)"/>
<path d="M0 0 C2 1 2 1 2 1 Z " fill="#FEFFFF" transform="translate(383,27)"/>
<path d="" fill="#FEFFFF" transform="translate(0,0)"/>
<path d="M0 0 C2 1 2 1 2 1 Z " fill="#FEFEFE" transform="translate(342,4)"/>
<path d="M0 0 C2 1 2 1 2 1 Z " fill="#FEFFFF" transform="translate(329,3)"/>
<path d="" fill="#FEFFFF" transform="translate(0,0)"/>
<path d="" fill="#FEFFFF" transform="translate(0,0)"/>
<path d="" fill="#FEFEFE" transform="translate(0,0)"/>
<path d="" fill="#FEFFFF" transform="translate(0,0)"/>
<path d="" fill="#FDFEFE" transform="translate(0,0)"/>
<path d="" fill="#FEFFFF" transform="translate(0,0)"/>
<path d="" fill="#FEFFFF" transform="translate(0,0)"/>
<path d="" fill="#FCFDFD" transform="translate(0,0)"/>
<path d="" fill="#FEFFFF" transform="translate(0,0)"/>
<path d="" fill="#FDFEFE" transform="translate(0,0)"/>
<path d="" fill="#FEFEFE" transform="translate(0,0)"/>
<path d="" fill="#FEFFFF" transform="translate(0,0)"/>
<path d="" fill="#FEFFFF" transform="translate(0,0)"/>
<path d="" fill="#FEFFFF" transform="translate(0,0)"/>
<path d="" fill="#FCFDFD" transform="translate(0,0)"/>
<path d="" fill="#FDFEFE" transform="translate(0,0)"/>
<path d="" fill="#FEFEFE" transform="translate(0,0)"/>
<path d="" fill="#FEFFFF" transform="translate(0,0)"/>
<path d="" fill="#FEFEFE" transform="translate(0,0)"/>
<path d="" fill="#FEFEFE" transform="translate(0,0)"/>
<path d="" fill="#FEFFFF" transform="translate(0,0)"/>
<path d="" fill="#FEFEFE" transform="translate(0,0)"/>
<path d="" fill="#FEFFFF" transform="translate(0,0)"/>
<path d="" fill="#FDFEFE" transform="translate(0,0)"/>
<path d="" fill="#FDFEFE" transform="translate(0,0)"/>
<path d="" fill="#FDFEFE" transform="translate(0,0)"/>
<path d="" fill="#FEFEFE" transform="translate(0,0)"/>
<path d="" fill="#FEFFFF" transform="translate(0,0)"/>
<path d="" fill="#FEFFFF" transform="translate(0,0)"/>
<path d="" fill="#FEFEFE" transform="translate(0,0)"/>
<path d="" fill="#FEFFFF" transform="translate(0,0)"/>
<path d="" fill="#FDFEFE" transform="translate(0,0)"/>
<path d="" fill="#FEFFFF" transform="translate(0,0)"/>
<path d="" fill="#FEFEFE" transform="translate(0,0)"/>
<path d="" fill="#FEFFFF" transform="translate(0,0)"/>
<path d="" fill="#FEFFFF" transform="translate(0,0)"/>
<path d="" fill="#FEFFFF" transform="translate(0,0)"/>
<path d="" fill="#FEFFFF" transform="translate(0,0)"/>
<path d="" fill="#FEFFFF" transform="translate(0,0)"/>
<path d="" fill="#FEFFFF" transform="translate(0,0)"/>
<path d="" fill="#FEFFFF" transform="translate(0,0)"/>
<path d="" fill="#FEFEFE" transform="translate(0,0)"/>
<path d="" fill="#FEFEFE" transform="translate(0,0)"/>
<path d="" fill="#FEFFFF" transform="translate(0,0)"/>
<path d="" fill="#FEFEFE" transform="translate(0,0)"/>
<path d="" fill="#FEFFFF" transform="translate(0,0)"/>
<path d="" fill="#FEFFFF" transform="translate(0,0)"/>
<path d="" fill="#FDFEFE" transform="translate(0,0)"/>
<path d="" fill="#FEFFFF" transform="translate(0,0)"/>
<path d="" fill="#FEFFFF" transform="translate(0,0)"/>
<path d="" fill="#FEFFFF" transform="translate(0,0)"/>
<path d="" fill="#FEFFFF" transform="translate(0,0)"/>
<path d="" fill="#FEFFFF" transform="translate(0,0)"/>
<path d="" fill="#FDFEFE" transform="translate(0,0)"/>
<path d="" fill="#FEFFFF" transform="translate(0,0)"/>
<path d="" fill="#FEFFFF" transform="translate(0,0)"/>
<path d="" fill="#FEFFFF" transform="translate(0,0)"/>
<path d="" fill="#FEFFFF" transform="translate(0,0)"/>
<path d="" fill="#FEFFFF" transform="translate(0,0)"/>
<path d="" fill="#FEFFFF" transform="translate(0,0)"/>
<path d="" fill="#FEFFFF" transform="translate(0,0)"/>
<path d="" fill="#FEFFFF" transform="translate(0,0)"/>
<path d="" fill="#FEFEFE" transform="translate(0,0)"/>
<path d="" fill="#FEFFFF" transform="translate(0,0)"/>
<path d="" fill="#FEFFFF" transform="translate(0,0)"/>
<path d="" fill="#FEFFFF" transform="translate(0,0)"/>
<path d="" fill="#FEFEFE" transform="translate(0,0)"/>
<path d="" fill="#FEFFFF" transform="translate(0,0)"/>
<path d="" fill="#FEFFFF" transform="translate(0,0)"/>
<path d="" fill="#FEFFFF" transform="translate(0,0)"/>
<path d="" fill="#FEFEFE" transform="translate(0,0)"/>
<path d="" fill="#FEFFFF" transform="translate(0,0)"/>
<path d="" fill="#FEFEFE" transform="translate(0,0)"/>
<path d="" fill="#FEFFFF" transform="translate(0,0)"/>
<path d="" fill="#FEFFFF" transform="translate(0,0)"/>
<path d="" fill="#FEFEFE" transform="translate(0,0)"/>
<path d="" fill="#FEFFFF" transform="translate(0,0)"/>
<path d="" fill="#FEFFFF" transform="translate(0,0)"/>
<path d="" fill="#FEFFFF" transform="translate(0,0)"/>
<path d="" fill="#FEFFFF" transform="translate(0,0)"/>
<path d="" fill="#FEFFFF" transform="translate(0,0)"/>
<path d="" fill="#FEFEFE" transform="translate(0,0)"/>
<path d="" fill="#FEFEFE" transform="translate(0,0)"/>
<path d="" fill="#FEFFFF" transform="translate(0,0)"/>
<path d="" fill="#FEFEFE" transform="translate(0,0)"/>
<path d="" fill="#FEFFFF" transform="translate(0,0)"/>
<path d="" fill="#FEFFFF" transform="translate(0,0)"/>
<path d="" fill="#FEFFFF" transform="translate(0,0)"/>
<path d="" fill="#FEFFFF" transform="translate(0,0)"/>
<path d="" fill="#FEFFFF" transform="translate(0,0)"/>
<path d="" fill="#FEFEFE" transform="translate(0,0)"/>
<path d="" fill="#FCFEFE" transform="translate(0,0)"/>
<path d="" fill="#FEFFFF" transform="translate(0,0)"/>
<path d="" fill="#FEFFFF" transform="translate(0,0)"/>
<path d="" fill="#FEFFFF" transform="translate(0,0)"/>
<path d="" fill="#FEFFFF" transform="translate(0,0)"/>
<path d="" fill="#FEFFFF" transform="translate(0,0)"/>
<path d="" fill="#FEFEFE" transform="translate(0,0)"/>
<path d="" fill="#FEFFFF" transform="translate(0,0)"/>
<path d="" fill="#FEFFFF" transform="translate(0,0)"/>
<path d="" fill="#FEFFFF" transform="translate(0,0)"/>
<path d="" fill="#FEFFFF" transform="translate(0,0)"/>
<path d="" fill="#FEFEFE" transform="translate(0,0)"/>
<path d="" fill="#FEFEFE" transform="translate(0,0)"/>
<path d="" fill="#FEFFFF" transform="translate(0,0)"/>
<path d="" fill="#FEFEFE" transform="translate(0,0)"/>
<path d="" fill="#FEFEFE" transform="translate(0,0)"/>
<path d="" fill="#FEFFFF" transform="translate(0,0)"/>
<path d="" fill="#FEFFFF" transform="translate(0,0)"/>
<path d="" fill="#FEFFFF" transform="translate(0,0)"/>
<path d="" fill="#FEFFFF" transform="translate(0,0)"/>
<path d="" fill="#FDFEFE" transform="translate(0,0)"/>
<path d="" fill="#FCFEFE" transform="translate(0,0)"/>
<path d="" fill="#FDFEFE" transform="translate(0,0)"/>
<path d="" fill="#FEFFFF" transform="translate(0,0)"/>
<path d="" fill="#FEFFFF" transform="translate(0,0)"/>
<path d="" fill="#FEFEFE" transform="translate(0,0)"/>
<path d="" fill="#FEFFFF" transform="translate(0,0)"/>
<path d="" fill="#FEFFFF" transform="translate(0,0)"/>
<path d="" fill="#FEFFFF" transform="translate(0,0)"/>
<path d="" fill="#FEFEFE" transform="translate(0,0)"/>
<path d="" fill="#FCFEFE" transform="translate(0,0)"/>
<path d="" fill="#FEFFFF" transform="translate(0,0)"/>
<path d="" fill="#FEFFFF" transform="translate(0,0)"/>
<path d="" fill="#FEFEFE" transform="translate(0,0)"/>
<path d="" fill="#FEFFFF" transform="translate(0,0)"/>
<path d="" fill="#FEFFFF" transform="translate(0,0)"/>
<path d="" fill="#FEFFFF" transform="translate(0,0)"/>
<path d="" fill="#FEFFFF" transform="translate(0,0)"/>
<path d="" fill="#FEFFFF" transform="translate(0,0)"/>
<path d="" fill="#FDFEFE" transform="translate(0,0)"/>
<path d="" fill="#FEFEFE" transform="translate(0,0)"/>
<path d="" fill="#FEFEFE" transform="translate(0,0)"/>
<path d="" fill="#FEFEFE" transform="translate(0,0)"/>
<path d="" fill="#FDFEFE" transform="translate(0,0)"/>
<path d="" fill="#FEFFFF" transform="translate(0,0)"/>
<path d="" fill="#FEFFFF" transform="translate(0,0)"/>
<path d="" fill="#FEFFFF" transform="translate(0,0)"/>
<path d="" fill="#FEFFFF" transform="translate(0,0)"/>
<path d="" fill="#FDFEFE" transform="translate(0,0)"/>
<path d="" fill="#FEFEFE" transform="translate(0,0)"/>
<path d="" fill="#FEFEFE" transform="translate(0,0)"/>
<path d="" fill="#FEFEFE" transform="translate(0,0)"/>
<path d="" fill="#FEFEFE" transform="translate(0,0)"/>
<path d="" fill="#FEFFFF" transform="translate(0,0)"/>
<path d="" fill="#FEFFFF" transform="translate(0,0)"/>
<path d="" fill="#FEFFFF" transform="translate(0,0)"/>
</svg>
