<?xml version="1.0" encoding="UTF-8"?>
<svg version="1.1" xmlns="http://www.w3.org/2000/svg" width="326" height="449">
<path d="M0 0 C13.97377729 -0.24490574 27.94543839 -0.38795263 41.92130852 -0.43329525 C49.54535552 -0.46026762 57.16575192 -0.52490123 64.78848076 -0.67358303 C71.60088854 -0.80636775 78.41006766 -0.87076758 85.22380924 -0.85544038 C88.78182366 -0.84959298 92.33258151 -0.87409211 95.88909721 -0.98268795 C109.04908955 -1.36464396 119.93119478 -1.5682877 129.99632072 7.79607868 C133.76922501 11.75715688 137.16662094 15.93004903 140.52578545 20.24194431 C141.77588558 21.71807642 143.03723674 23.18478251 144.31167412 24.63995457 C144.84789894 25.25280434 145.38412376 25.86565411 145.93659782 26.49707508 C148.13261441 28.90822007 150.45364623 31.17999911 152.7796917 33.46460056 C154.59056187 35.30788005 156.27899898 37.2201723 157.96328545 39.17944431 C160.38196323 41.98770779 162.88478227 44.64165024 165.52578545 47.24194431 C168.00541873 49.68857868 170.38018921 52.16302206 172.65078545 54.80444431 C177.80173884 60.78468952 183.25636041 66.4890633 188.65420341 72.24536228 C193.95554878 77.90077611 199.24232945 83.56982029 204.52578545 89.24194431 C205.09168388 89.84909275 205.65758232 90.45624119 206.2406292 91.08178806 C207.87937207 92.84163896 209.51550124 94.60387976 211.15078545 96.36694431 C211.8780584 97.14739109 211.8780584 97.14739109 212.62002373 97.94360447 C213.93496348 99.36444541 215.23093277 100.80277369 216.52578545 102.24194431 C217.57855643 103.22422221 217.57855643 103.22422221 218.65259552 104.22634411 C221.48775427 108.79059314 221.07158121 113.02373416 221.02026176 118.29623508 C221.0250906 119.42515128 221.02991943 120.55406747 221.03489459 121.71719325 C221.04618638 125.50871775 221.02882912 129.29957094 221.01162529 133.09106541 C221.01155698 135.80635567 221.01748744 138.52162532 221.02313042 141.23690891 C221.03321494 147.85410673 221.02192797 154.47110464 221.00342982 161.08827762 C220.98264057 168.80348605 220.98280289 176.51865145 220.98377497 184.23388262 C220.98477652 198.01249084 220.96645146 211.79100631 220.93740654 225.56958103 C220.9092861 238.91660345 220.89506268 252.26354419 220.89639091 265.61059666 C220.89647083 266.43118676 220.89655074 267.25177687 220.89663307 268.09723334 C220.89671378 268.91644761 220.89679449 269.73566188 220.89687765 270.57970083 C220.8982616 285.79467192 220.88644567 301.00960849 220.86857121 316.22456836 C220.86256255 321.59116445 220.86041489 326.95775414 220.85950661 332.32435322 C220.85813457 338.88032691 220.84909958 345.43624251 220.83084099 351.9921916 C220.82167674 355.33176197 220.81656393 358.67119677 220.8180294 362.01078892 C220.82795565 398.42248427 220.82795565 398.42248427 214.52578545 409.24194431 C214.17773857 409.8645615 213.8296917 410.48717869 213.47109795 411.12866306 C209.14605858 418.00398426 202.25186637 422.13000783 194.52578545 424.24194431 C191.4810198 424.51340179 188.45441068 424.49518787 185.3993206 424.46899509 C184.05201363 424.46943317 184.05201363 424.46943317 182.67748833 424.4698801 C179.72317492 424.46849224 176.76911704 424.45295663 173.81484795 424.43725681 C171.76076203 424.43352475 169.70667432 424.43067869 167.65258598 424.42868137 C162.25703799 424.42106014 156.86159836 424.40142458 151.46609306 424.37927341 C145.95605752 424.35878247 140.44600439 424.34967271 134.9359417 424.33960056 C124.13250877 424.3181773 113.32915614 424.28405955 102.52578545 424.24194431 C102.49682569 421.11696368 102.47900061 417.99201741 102.46328545 414.86694431 C102.45490654 413.97749119 102.44652763 413.08803806 102.43789482 412.17163181 C102.43467216 411.32085056 102.43144951 410.47006931 102.4281292 409.59350681 C102.42289238 408.80798435 102.41765556 408.02246189 102.41226006 407.21313572 C102.52578545 405.24194431 102.52578545 405.24194431 103.52578545 403.24194431 C104.59431755 403.23385746 105.66284966 403.22577061 106.76376152 403.2174387 C116.82846498 403.13998966 126.89303305 403.05225345 136.95755959 402.95441723 C142.13196692 402.90444876 147.30635378 402.85811868 152.48086357 402.82006931 C157.47355605 402.78322359 162.4660775 402.73686543 167.45862389 402.68388081 C169.36439072 402.66533309 171.27019423 402.65022653 173.17601585 402.63860035 C175.84324002 402.62174444 178.51007215 402.59271092 181.17715263 402.56079197 C182.36182625 402.55755169 182.36182625 402.55755169 183.57043266 402.55424595 C187.44163524 402.49497402 190.2342529 402.30912971 193.52578545 400.24194431 C198.14398932 394.52010116 198.08553161 387.93578037 198.00680351 380.91577244 C198.01022121 379.79412724 198.01363891 378.67248205 198.01716018 377.51684761 C198.02373438 373.76870094 198.00176933 370.02127471 197.97988701 366.27319431 C197.97875843 363.58237696 197.97921656 360.89160337 197.98165703 358.20079136 C197.98375049 352.41299107 197.97124195 346.6253717 197.94870567 340.83761692 C197.91614374 332.46961315 197.90577439 324.10169652 197.90075371 315.73363626 C197.89200762 302.15578967 197.8654107 288.57803941 197.82754326 275.00024509 C197.79080539 261.81372655 197.76250233 248.6272342 197.74551201 235.44067478 C197.74393567 234.22065277 197.74393567 234.22065277 197.74232748 232.97598386 C197.73710718 228.89549765 197.73205239 224.81501125 197.72707987 220.73452473 C197.6856392 186.90359474 197.6152095 153.07278135 197.52578545 119.24194431 C196.05239456 119.2431377 196.05239456 119.2431377 194.5492382 119.2443552 C185.26590943 119.24796665 175.98313265 119.22003002 166.69998074 119.16166592 C161.92799792 119.13266544 157.15650436 119.11455652 152.38442802 119.12182713 C147.77397757 119.12844262 143.164492 119.10580996 138.55424118 119.06338978 C136.80053901 119.0522979 135.04673853 119.0515229 133.29302979 119.06152058 C115.94511725 119.14769595 115.94511725 119.14769595 108.52578545 112.24194431 C107.58982127 111.52650377 107.58982127 111.52650377 106.63494873 110.79660988 C103.28217453 108.15073773 102.59059493 105.69161459 101.98580742 101.4953928 C101.65526462 96.61214807 101.69285325 91.73139196 101.72109795 86.83960056 C101.71003316 85.23830206 101.69629118 83.63701976 101.67983818 82.03576756 C101.65001091 78.46881904 101.64150888 74.90254869 101.64645195 71.33548069 C101.65759587 62.77277926 101.6227785 54.21023932 101.59332633 45.64760196 C101.57814318 41.16952582 101.56444642 36.69144521 101.55065727 32.2133646 C101.54582685 30.66289073 101.54098992 29.11241688 101.53614426 27.56194305 C101.53272585 26.46634347 101.52930744 25.37074389 101.52578545 24.24194431 C80.54179881 24.17182159 59.55783154 24.11894012 38.57375145 24.0865078 C28.83018384 24.07104775 19.0866891 24.04997469 9.34316826 24.01562595 C0.84938905 23.98569723 -7.64433738 23.96636304 -16.13816786 23.95967883 C-20.63438991 23.95577246 -25.13046099 23.94660989 -29.6266346 23.92475414 C-33.86191884 23.90433411 -38.09699046 23.89812164 -42.33231926 23.90262127 C-43.88347594 23.90179853 -45.43464002 23.89586576 -46.98575401 23.88432789 C-59.58081237 23.58760284 -59.58081237 23.58760284 -70.64674139 28.96790755 C-73.02326367 31.92515975 -72.97533794 33.5871269 -72.97757912 37.35524654 C-72.98801011 38.61701635 -72.9984411 39.87878615 -73.00918818 41.1787914 C-73.00053963 42.58171112 -72.99151299 43.98462855 -72.98214912 45.38754368 C-72.9867565 46.87577889 -72.99310832 48.36400956 -73.0010581 49.85223067 C-73.01779759 53.94770105 -73.00948424 58.04279988 -72.99711323 62.13827181 C-72.9880837 66.55283472 -73.00202212 70.96733257 -73.01303291 75.38188267 C-73.03084609 84.03287206 -73.02696547 92.68372285 -73.01538235 101.33471774 C-73.00635812 108.36499896 -73.00511965 115.39524127 -73.00947762 122.42552662 C-73.01009055 123.42515773 -73.01070348 124.42478884 -73.01133499 125.4547118 C-73.01261386 127.48530829 -73.01391071 129.51590477 -73.01522535 131.54650123 C-73.02663965 150.60099052 -73.01350474 169.65540292 -72.99202389 188.70987959 C-72.97415761 205.06435638 -72.97725149 221.41871959 -72.99569893 237.77319431 C-73.01710008 256.75521453 -73.02553516 275.73716727 -73.01324987 294.71919787 C-73.01197565 296.74304206 -73.01071817 298.76688626 -73.00947762 300.79073048 C-73.00855196 302.28445985 -73.00855196 302.28445985 -73.00760761 303.80836558 C-73.00415204 310.83029246 -73.00998764 317.8521766 -73.01939583 324.87409687 C-73.03060904 333.43154694 -73.02759026 341.98885023 -73.00627285 350.54628347 C-72.99575246 354.91361141 -72.99165732 359.28069455 -73.00486946 363.64802074 C-73.01677916 367.6452602 -73.0102546 371.64202768 -72.98895925 375.63922425 C-72.98448704 377.08603426 -72.98677339 378.53288406 -72.9964624 379.97966854 C-73.33990669 390.01198346 -73.33990669 390.01198346 -68.47421455 398.24194431 C-63.54323829 402.09072697 -58.22512374 402.8271653 -52.14633369 402.77197361 C-51.35673256 402.78070499 -50.56713142 402.78943638 -49.75360298 402.79843235 C-47.17195465 402.82261887 -44.59111719 402.81941097 -42.0093708 402.81616306 C-40.20714655 402.82861726 -38.40493442 402.842954 -36.60273933 402.85908604 C-31.88002167 402.89698583 -27.15751352 402.91228073 -22.43466377 402.92187595 C-14.85110871 402.94168136 -7.26771214 402.99833332 0.31567383 403.05063915 C2.96644925 403.06602274 5.61714544 403.073181 8.26795769 403.07878208 C9.87986097 403.08579342 11.49176387 403.09289395 13.10366631 403.10009861 C13.84491249 403.09956989 14.58615868 403.09904118 15.34986687 403.09849644 C20.41256308 403.12872194 20.41256308 403.12872194 21.52578545 404.24194431 C21.62589841 407.23061074 21.6645252 410.19104884 21.65078545 413.17944431 C21.65465263 414.01669041 21.65851982 414.8539365 21.6625042 415.71655369 C21.66121513 416.51770603 21.65992607 417.31885838 21.65859795 418.14428806 C21.65747002 418.88155125 21.65634209 419.61881443 21.65517998 420.37841892 C21.52578545 422.24194431 21.52578545 422.24194431 20.52578545 424.24194431 C9.24205947 424.33491556 -2.04157432 424.40584655 -13.32560635 424.449193 C-18.56611734 424.47000462 -23.8063649 424.49820418 -29.04672432 424.54370213 C-34.11069172 424.5873899 -39.17440686 424.61112967 -44.23854828 424.62145329 C-46.16372011 424.62880367 -48.08887925 424.64315661 -50.01394272 424.66486454 C-63.7832295 424.81385843 -75.10333227 424.45755511 -85.5328083 414.38256931 C-94.51076346 404.48333505 -94.77084654 394.27775074 -94.72818184 381.40773106 C-94.73048809 379.89343759 -94.73366572 378.37914525 -94.73763633 376.86485523 C-94.74597041 372.71589735 -94.74186535 368.56703171 -94.73566389 364.41807353 C-94.7311347 359.93878458 -94.73812551 355.45951138 -94.74362373 350.98022556 C-94.75251459 342.20983066 -94.75059702 333.43947001 -94.74479845 324.66907377 C-94.74028048 317.54023851 -94.73966965 310.41141284 -94.74184608 303.28257656 C-94.74215255 302.26770141 -94.74245902 301.25282626 -94.74277477 300.20719732 C-94.74341423 298.14544217 -94.74406265 296.08368702 -94.74471995 294.02193188 C-94.75042242 274.69075855 -94.7438668 255.35960419 -94.73311922 236.02843397 C-94.72418514 219.44586737 -94.72573474 202.86332877 -94.73495674 186.28076267 C-94.74566316 167.01999464 -94.74987168 147.75924323 -94.74373221 128.49847263 C-94.74309512 126.44402437 -94.74246638 124.3895761 -94.74184608 122.33512783 C-94.74153753 121.32432567 -94.74122898 120.31352352 -94.74091108 119.27209099 C-94.73918516 112.1533554 -94.74209707 105.03463037 -94.74680519 97.91589642 C-94.7524182 89.23826342 -94.75088876 80.56066661 -94.7402437 71.88303775 C-94.73499247 67.45663951 -94.73292091 63.03030155 -94.73954201 58.60390377 C-94.74551497 54.54943327 -94.74220414 50.49507877 -94.7315869 46.44061875 C-94.72935857 44.97637481 -94.73047641 43.51212102 -94.73533848 42.04788346 C-94.77105147 30.39607364 -94.47369512 20.35963184 -86.47421455 11.24194431 C-74.21739456 0.32002551 -59.02922797 0.6174035 -43.59921455 0.53881931 C-41.36815856 0.5143952 -39.13711967 0.48836544 -36.90609932 0.46087742 C-32.04131413 0.40376222 -27.17657623 0.35823288 -22.3116169 0.31884861 C-14.87350441 0.25343351 -7.43716155 0.13099373 0 0 Z " fill="#EE8E6F" transform="translate(100.47421455383301,2.7580556869506836)"/>
<path d="M0 0 C2.25 2 2.25 2 3.48046875 3.375 C5.38232854 5.40886548 7.459229 7.17515244 9.5625 9 C14.23561316 13.17167628 18.46177871 17.62983628 22.66699219 22.26049805 C25.4789164 25.35679971 28.3277711 28.37972963 31.3125 31.3125 C33.72635126 33.68694144 35.99389155 36.1086725 38.1875 38.6875 C42.0971537 43.26398716 46.40546344 47.43109415 50.7331543 51.6081543 C52.191698 53.03597834 53.60052116 54.5142375 55 56 C55 56.66 55 57.32 55 58 C55.66 58 56.32 58 57 58 C59.5184557 60.49984642 61.7228157 63.28059465 64 66 C64.78375 66.86625 65.5675 67.7325 66.375 68.625 C69.92823635 73.81819159 69.07058486 80.22689043 68.75 86.25 C68.70939453 87.47203125 68.70939453 87.47203125 68.66796875 88.71875 C68.546875 91.078125 68.546875 91.078125 68 95 C64.25212023 97.49858651 61.33618443 97.28186798 56.99745178 97.26069641 C55.7605239 97.26643473 55.7605239 97.26643473 54.49860758 97.27228898 C51.72565141 97.28263699 48.95290162 97.27862343 46.17993164 97.2746582 C44.19585477 97.27900368 42.21177959 97.28418627 40.22770691 97.29014587 C34.83107504 97.30356472 29.43451309 97.30411135 24.03786778 97.30158257 C19.53715906 97.30051483 15.03646459 97.30539117 10.53575891 97.310188 C-0.07960576 97.32129313 -10.69493506 97.32171491 -21.31030273 97.31567383 C-32.27175026 97.30963184 -43.2330695 97.32194849 -54.19449514 97.3432439 C-63.5966718 97.36084032 -72.99880756 97.36686436 -82.40100008 97.36360615 C-88.02043523 97.36179005 -93.63977886 97.36446204 -99.25919914 97.37832069 C-104.54265327 97.3908626 -109.82590692 97.38898948 -115.10935783 97.37590981 C-117.05081244 97.37353654 -118.99228101 97.37630542 -120.93371964 97.38453293 C-123.5795376 97.39493878 -126.22467517 97.38694963 -128.87046814 97.3742218 C-129.64274197 97.38159609 -130.4150158 97.38897037 -131.21069187 97.39656812 C-134.36666806 97.36452394 -136.64171855 97.19284729 -139.44559574 95.68364239 C-141.9796287 92.93892185 -142 90.66010628 -142 87 C-138.87148221 81.28900856 -134.26849276 77.02835179 -129.65625 72.49609375 C-128.85014282 71.69518814 -128.04403564 70.89428253 -127.21350098 70.06910706 C-124.64706234 67.52041586 -122.07402018 64.97853227 -119.5 62.4375 C-116.92685797 59.89203911 -114.35521522 57.34510858 -111.78649902 54.79518127 C-110.19105141 53.21192216 -108.59293779 51.63134381 -106.99182129 50.05381775 C-103.42093557 46.51498617 -100.05855752 43.00298064 -97 39 C-94.08829857 36.3032564 -91.48541786 34.07245941 -87.4375 33.875 C-81.6332842 36.55386883 -77.87862289 41.19236975 -73.78515625 45.93359375 C-73.19605469 46.61550781 -72.60695313 47.29742187 -72 48 C-71.42121094 48.67160156 -70.84242188 49.34320313 -70.24609375 50.03515625 C-67.37895477 53.15886248 -65.36847174 55.31369725 -61.0625 55.9375 C-59.5465625 55.9684375 -59.5465625 55.9684375 -58 56 C-57.75121094 55.42894531 -57.50242187 54.85789063 -57.24609375 54.26953125 C-55.81794978 51.6684289 -54.10876771 49.83284213 -52.0625 47.6875 C-49.50214567 44.88482642 -48.02044241 43.04977282 -46.5625 39.5 C-43.94929453 33.64641974 -39.09598637 29.65558626 -34.28027344 25.52490234 C-28.43247049 20.50891169 -23.03100826 15.11039165 -17.625 9.625 C-15.8486586 7.82324599 -14.07012661 6.02364817 -12.2890625 4.2265625 C-11.51256348 3.43846191 -10.73606445 2.65036133 -9.93603516 1.83837891 C-6.47873863 -1.44452688 -4.54554848 -1.24779762 0 0 Z " fill="#EE8B6B" transform="translate(204,141)"/>
<path d="M0 0 C1.92845764 -0.01485695 1.92845764 -0.01485695 3.89587402 -0.03001404 C5.31852818 -0.025776 6.7411814 -0.02121814 8.16383362 -0.01637268 C9.66368621 -0.0220756 11.16353446 -0.02903955 12.66337585 -0.03717041 C16.73572138 -0.05512606 20.80785171 -0.05392893 24.88022494 -0.04822803 C28.27989922 -0.04513955 31.67953196 -0.05122484 35.07920033 -0.05726677 C43.09947125 -0.07131837 51.11963567 -0.06974553 59.13990784 -0.05836487 C67.41404441 -0.04688342 75.68785686 -0.0609582 83.96195072 -0.08776134 C91.06610791 -0.10991296 98.17016333 -0.11655694 105.27435261 -0.11068493 C109.51724416 -0.10731279 113.75992794 -0.10974734 118.00279045 -0.12693596 C121.99281682 -0.1423945 125.98236283 -0.13846208 129.97237015 -0.11963081 C131.43608699 -0.11594182 132.89983933 -0.11906251 134.36352348 -0.1295166 C136.36275531 -0.14270471 138.36211104 -0.12878438 140.36132812 -0.11352539 C142.03903368 -0.11321146 142.03903368 -0.11321146 143.75063229 -0.1128912 C147.45820627 0.50708218 149.08901119 1.76957505 151.74415588 4.38768005 C155.85171213 12.30939566 156.04730894 18.14561155 153.77149963 26.59861755 C152.15619463 30.98389426 149.95837549 33.28057025 145.74415588 35.38768005 C143.83433642 35.47887676 141.92128403 35.50520543 140.0092926 35.50120544 C138.80819855 35.50112991 137.60710449 35.50105438 136.36961365 35.50097656 C135.06750946 35.49581528 133.76540527 35.49065399 132.42384338 35.4853363 C131.08148755 35.48347143 129.73913104 35.48204786 128.39677429 35.48104858 C124.86219914 35.47722884 121.32766501 35.46740318 117.79310608 35.4563446 C114.18695124 35.44611883 110.58078979 35.44154846 106.97462463 35.43650818 C99.89778492 35.42578043 92.82097308 35.4087105 85.74415588 35.38768005 C85.74415588 38.02768005 85.74415588 40.66768005 85.74415588 43.38768005 C82.89408458 44.81271571 80.45795333 44.51748041 77.27540588 44.52049255 C75.9824762 44.52178162 74.68954651 44.52307068 73.35743713 44.5243988 C72.68277405 44.52230408 72.00811096 44.52020935 71.31300354 44.51805115 C69.25221899 44.51270099 67.19165239 44.5180004 65.13087463 44.5243988 C63.83794495 44.52310974 62.54501526 44.52182068 61.21290588 44.52049255 C60.0211676 44.51936462 58.82942932 44.51823669 57.60157776 44.51707458 C54.74415588 44.38768005 54.74415588 44.38768005 52.74415588 43.38768005 C52.74415588 40.74768005 52.74415588 38.10768005 52.74415588 35.38768005 C51.67419876 35.40433464 51.67419876 35.40433464 50.58262634 35.42132568 C43.84462295 35.5217103 37.10682968 35.59773683 30.36824608 35.64674091 C26.90419363 35.67278231 23.44076151 35.70807697 19.97706604 35.76487732 C15.99065194 35.82983692 12.00448482 35.85390592 8.01759338 35.8759613 C6.7798819 35.90176773 5.54217041 35.92757416 4.26695251 35.9541626 C-5.33553281 35.95728681 -5.33553281 35.95728681 -9.00071716 33.00413513 C-14.67414912 26.42167651 -13.83407751 18.62528189 -13.25584412 10.38768005 C-12.4660494 6.80189674 -11.23252883 4.32415815 -8.53745937 1.74003506 C-5.54346383 -0.03456075 -3.47311502 0.00754794 0 0 Z " fill="#466568" transform="translate(93.25584411621094,254.61231994628906)"/>
<path d="M0 0 C0.98286987 -0.00708481 1.96573975 -0.01416962 2.97839355 -0.02146912 C4.06052628 -0.0189917 5.142659 -0.01651428 6.25758362 -0.01396179 C7.39422455 -0.01907272 8.53086548 -0.02418365 9.70195007 -0.02944946 C13.47518619 -0.04339799 17.24824073 -0.04238473 21.02149963 -0.04008484 C23.63462391 -0.04396886 26.24774755 -0.04830291 28.86087036 -0.05307007 C34.34452434 -0.06129012 39.82812683 -0.06037032 45.31178284 -0.05497742 C51.65341909 -0.04893669 57.99483352 -0.06124896 64.33643192 -0.08254749 C70.43293171 -0.10227128 76.52932759 -0.10533916 82.6258564 -0.10181236 C85.22188399 -0.10232714 87.817915 -0.10759389 90.41392326 -0.11762428 C94.03906899 -0.12991106 97.66369666 -0.12324334 101.28883362 -0.11161804 C102.36894211 -0.11926178 103.4490506 -0.12690552 104.56188965 -0.13478088 C105.54757935 -0.12776657 106.53326904 -0.12075226 107.54882812 -0.11352539 C108.40626334 -0.11369313 109.26369856 -0.11386087 110.14711666 -0.1140337 C112.84888357 0.34809812 113.69727448 1.09933597 115.33790588 3.26069641 C116.55138343 6.90112904 116.56040309 10.28124827 116.58790588 14.07319641 C116.60853088 14.77251282 116.62915588 15.47182922 116.65040588 16.19233704 C116.68619267 20.97434575 115.88980739 24.2160564 113.33790588 28.26069641 C110.98590529 29.43669671 109.60056188 29.38154182 106.97999573 29.3742218 C105.62882156 29.37410851 105.62882156 29.37410851 104.25035095 29.37399292 C103.27635345 29.36883163 102.30235596 29.36367035 101.29884338 29.35835266 C100.30285126 29.35693771 99.30685913 29.35552277 98.28068542 29.35406494 C95.09139536 29.34845577 91.90217483 29.33590171 88.71290588 29.32319641 C86.55405273 29.31818259 84.39519848 29.31361948 82.23634338 29.30952454 C76.93684039 29.29848336 71.6373781 29.28173629 66.33790588 29.26069641 C66.49867111 29.85642456 66.65943634 30.45215271 66.82507324 31.06593323 C67.52256714 34.05098877 67.56027406 36.93211711 67.65431213 39.99507141 C67.69620667 41.29057922 67.7381012 42.58608704 67.78126526 43.92085266 C67.8210726 45.28413118 67.86078494 46.64741247 67.90040588 48.01069641 C67.94362862 49.38961516 67.98724409 50.76852167 68.03126526 52.14741516 C68.13734546 55.51840832 68.23940438 58.88947468 68.33790588 62.26069641 C69.50833435 62.71448669 69.50833435 62.71448669 70.70240784 63.17744446 C75.51293007 65.15468273 79.98501422 68.17498843 82.83790588 72.57319641 C83.82956309 77.9033539 84.4363189 82.4169317 81.58790588 87.19819641 C78.25503493 90.25332812 75.63182446 91.5064906 71.10768127 91.53535461 C70.28325027 91.54488663 69.45881927 91.55441864 68.60940552 91.5642395 C67.28585304 91.56287239 67.28585304 91.56287239 65.93556213 91.56147766 C64.56348854 91.56790535 64.56348854 91.56790535 63.16369629 91.57446289 C61.23129605 91.58019964 59.29887422 91.58071127 57.36647034 91.57637024 C54.41451571 91.57321151 51.46356469 91.5966732 48.51173401 91.62202454 C46.63217798 91.62429776 44.75261926 91.62500092 42.87306213 91.62397766 C41.99271805 91.63318741 41.11237396 91.64239716 40.20535278 91.65188599 C35.42133854 91.61587919 32.21907212 91.37342649 28.33790588 88.26069641 C25.1528296 84.3068086 24.82073403 81.26002434 25.33790588 76.26069641 C26.98122721 70.01607538 29.69325875 67.87652037 35.18165588 64.62007141 C37.38653528 63.23003875 38.76136154 62.33592964 40.33790588 60.26069641 C40.93889317 56.97155038 40.93889317 56.97155038 41.06837463 53.18647766 C41.10852188 52.50264511 41.14866913 51.81881256 41.19003296 51.11425781 C41.31498538 48.93440087 41.42043244 46.7540978 41.52540588 44.57319641 C41.60680382 43.0933075 41.68947124 41.61348783 41.77345276 40.13374329 C41.97632932 36.51008132 42.16172897 32.88576567 42.33790588 29.26069641 C41.09702209 29.30669983 39.85613831 29.35270325 38.57765198 29.40010071 C33.95994376 29.56706687 29.34176617 29.71302061 24.72315979 29.85273743 C22.72687694 29.9160421 20.73076461 29.98499249 18.73487854 30.05976868 C15.86063261 30.16646091 12.98637882 30.25262129 10.11134338 30.33491516 C8.77974686 30.39095161 8.77974686 30.39095161 7.42124939 30.44812012 C2.25385276 30.57261294 -1.18012375 30.14929976 -5.66209412 27.26069641 C-9.2937552 23.62903533 -8.74956308 18.66221738 -8.84959412 13.76069641 C-8.78201268 6.66464568 -8.24685159 0.01975328 0 0 Z " fill="#446467" transform="translate(108.66209411621094,353.7393035888672)"/>
<path d="M0 0 C6.90255318 5.36865247 9.45876049 10.58586314 10.8125 19.1875 C11.06428986 25.45203172 9.47894384 31.08853849 5.8125 36.1875 C0.43970784 41.95865508 -4.27327846 45.65723268 -12.30078125 46.5234375 C-21.63379396 46.6373937 -28.1157832 45.30071304 -35.0625 38.875 C-41.05681333 32.25483029 -41.80737871 26.49709036 -41.6015625 17.703125 C-40.82837016 11.13828439 -38.21072485 5.67407652 -33.25 1.25 C-21.92723368 -6.3755365 -11.77046812 -6.69301129 0 0 Z " fill="#EE8C6C" transform="translate(112.1875,106.8125)"/>
<path d="M0 0 C0.71495132 -0.00902847 1.42990265 -0.01805695 2.16651917 -0.02735901 C3.67517934 -0.04183301 5.18390189 -0.05074116 6.69262695 -0.05444336 C8.99342986 -0.06635203 11.29155865 -0.11556641 13.59179688 -0.16601562 C15.06118489 -0.17547965 16.5305893 -0.18271479 18 -0.1875 C18.68348007 -0.20703232 19.36696014 -0.22656464 20.07115173 -0.24668884 C23.87994624 -0.21093205 25.48081491 0.30390472 28.51196289 2.68334961 C31.17327137 6.16503054 31.11244448 8.08079337 30.56640625 12.37109375 C29.54903854 15.1325204 29.20469884 16.05194746 26.56640625 17.37109375 C23.90276927 17.49428066 21.26627591 17.5594677 18.6015625 17.57421875 C17.41789345 17.58276886 17.41789345 17.58276886 16.21031189 17.5914917 C14.54004254 17.600943 12.86975454 17.6074762 11.19946289 17.61132812 C8.64241113 17.62104244 6.0861602 17.65206707 3.52929688 17.68359375 C1.90755686 17.69012297 0.2858111 17.69537376 -1.3359375 17.69921875 C-2.10163559 17.71156555 -2.86733368 17.72391235 -3.65623474 17.7366333 C-8.92084266 17.71450702 -8.92084266 17.71450702 -11.38891602 16.06152344 C-13.13175031 13.24138213 -13.26451096 10.64002767 -13.43359375 7.37109375 C-12.72775872 4.48358682 -12.28510686 2.95732036 -9.81616211 1.25756836 C-6.56129454 0.04654017 -3.42915303 0.02682627 0 0 Z " fill="#476669" transform="translate(154.43359375,328.62890625)"/>
<path d="M0 0 C0.76691666 -0.00570007 1.53383331 -0.01140015 2.32398987 -0.01727295 C3.94718037 -0.0267236 5.57039007 -0.03325719 7.19360352 -0.03710938 C9.67823654 -0.04682351 12.16204528 -0.07784846 14.64648438 -0.109375 C16.22265133 -0.11590427 17.79882421 -0.12115504 19.375 -0.125 C20.49073647 -0.1435202 20.49073647 -0.1435202 21.62901306 -0.16241455 C26.76057327 -0.14022531 26.76057327 -0.14022531 29.19165039 1.55175781 C30.86543989 4.15380611 31.13504297 6.11267968 31.25390625 9.203125 C30.54784533 11.85900032 29.60182026 13.74799591 28.25390625 16.203125 C22.9341654 17.97637195 17.20172424 17.50806602 11.63037109 17.55322266 C10.13281722 17.56978636 8.63534254 17.59708271 7.13818359 17.63525391 C4.97061497 17.69017138 2.80489031 17.71191333 0.63671875 17.7265625 C-0.65862793 17.74638184 -1.95397461 17.76620117 -3.28857422 17.78662109 C-7.63547239 17.05303215 -9.09183105 15.65912434 -11.74609375 12.203125 C-12.26214821 8.00096728 -12.19882687 4.74596173 -9.74609375 1.203125 C-6.65676116 -0.3415413 -3.3916025 0.0193255 0 0 Z " fill="#466467" transform="translate(152.74609375,305.796875)"/>
<path d="M0 0 C6.26169243 0.04443422 12.52339031 0.07229538 18.78518647 0.09721732 C24.91196986 0.12234693 31.03861671 0.15883826 37.16528279 0.20430303 C40.78635881 0.23097233 44.40731443 0.253044 48.02847731 0.26332045 C52.00772499 0.27502604 55.98656426 0.31031838 59.96565497 0.34802961 C61.74223486 0.34823355 61.74223486 0.34823355 63.55470526 0.3484416 C64.62807639 0.36242491 65.70144751 0.37640821 66.80734503 0.39081526 C67.74217247 0.39672304 68.6769999 0.40263083 69.64015543 0.40871763 C70.37526315 0.53661051 71.11037087 0.66450338 71.86775458 0.7962718 C72.85775458 2.2812718 72.85775458 2.2812718 73.86775458 3.7962718 C72.87775458 4.1262718 71.88775458 4.4562718 70.86775458 4.7962718 C70.86775458 3.8062718 70.86775458 2.8162718 70.86775458 1.7962718 C8.16775458 2.1262718 -54.53224542 2.4562718 -119.13224542 2.7962718 C-114.63123129 0.54576473 -114.63123129 0.54576473 -111.12420404 0.47345686 C-110.32988285 0.45279913 -109.53556165 0.4321414 -108.71717012 0.41085768 C-107.84811225 0.39850332 -106.97905439 0.38614897 -106.08366144 0.37342024 C-105.15225524 0.35329123 -104.22084905 0.33316221 -103.26121843 0.31242323 C-100.11546165 0.24890352 -96.96971407 0.20142293 -93.82365167 0.1556468 C-92.71906673 0.13681189 -91.61448179 0.11797697 -90.47642457 0.0985713 C-60.3188295 -0.41114196 -30.15936122 -0.22023075 0 0 Z " fill="#E79881" transform="translate(150.1322454214096,3.203728199005127)"/>
<path d="M0 0 C0.66 0 1.32 0 2 0 C2 0.66 2 1.32 2 2 C13.22 2 24.44 2 36 2 C35.67 2.99 35.34 3.98 35 5 C30.49765627 5.04944705 25.9954707 5.08574161 21.49291992 5.10986328 C19.96131639 5.11991935 18.42973205 5.133566 16.89819336 5.15087891 C14.69640364 5.17514498 12.49486781 5.18648688 10.29296875 5.1953125 C9.60849167 5.20563507 8.92401459 5.21595764 8.21879578 5.22659302 C4.56938339 5.22745382 3.12851498 5.08567666 0 3 C0 2.01 0 1.02 0 0 Z " fill="#688083" transform="translate(143,318)"/>
<path d="M0 0 C0 0.99 0 1.98 0 3 C0.99 3.33 1.98 3.66 3 4 C3 4.66 3 5.32 3 6 C0.69 6.66 -1.62 7.32 -4 8 C-4 8.66 -4 9.32 -4 10 C-4 11.66666667 -4 13.33333333 -4 15 C-3.34 15 -2.68 15 -2 15 C-1.67 16.32 -1.34 17.64 -1 19 C-3.64 19 -6.28 19 -9 19 C-9.98566402 14.89306657 -10.38981672 12.76404078 -8.4375 8.9375 C-5.77990073 5.73475216 -3.00955342 2.87275553 0 0 Z " fill="#E8957A" transform="translate(72,216)"/>
<path d="M0 0 C0.99 0.6496875 0.99 0.6496875 2 1.3125 C1.34 1.9725 0.68 2.6325 0 3.3125 C-3.5625 3.0625 -3.5625 3.0625 -7 2.3125 C-7.33 1.6525 -7.66 0.9925 -8 0.3125 C-10.02463255 -0.33963292 -10.02463255 -0.33963292 -12 -0.6875 C-12 -1.3475 -12 -2.0075 -12 -2.6875 C-13.85625 -2.378125 -13.85625 -2.378125 -15.75 -2.0625 C-19.11909835 -1.62642876 -21.12841921 -1.65346361 -24 -3.6875 C-15.13141581 -6.1643118 -7.86367487 -4.42331711 0 0 Z " fill="#E18F72" transform="translate(112,106.6875)"/>
<path d="M0 0 C0.66 0.33 1.32 0.66 2 1 C1.67 1.99 1.34 2.98 1 4 C0.34 4 -0.32 4 -1 4 C-2.56272189 8.39253773 -2.56272189 8.39253773 -3 13 C-4.32 13.33 -5.64 13.66 -7 14 C-7 17.63 -7 21.26 -7 25 C-9.51176295 21.23235557 -9.72483317 18.35632055 -9 14 C-6.98213314 8.63778009 -4.51117182 3.67576963 0 0 Z " fill="#E59276" transform="translate(16,12)"/>
<path d="M0 0 C2.81734598 4.22601897 3.17991979 7.96224593 3 13 C0.62269939 22.91820041 0.62269939 22.91820041 -4 26 C-4.33 24.02 -4.66 22.04 -5 20 C-4.34 19.67 -3.68 19.34 -3 19 C-2.34786708 16.97536745 -2.34786708 16.97536745 -2 15 C-1.34 15 -0.68 15 0 15 C0 10.05 0 5.1 0 0 Z " fill="#E99F89" transform="translate(120,118)"/>
<path d="M0 0 C3.04332765 1.3584202 5.12309151 2.88463024 7.453125 5.2578125 C8.071875 5.88300781 8.690625 6.50820312 9.328125 7.15234375 C9.96234375 7.80332031 10.5965625 8.45429688 11.25 9.125 C11.8996875 9.78371094 12.549375 10.44242188 13.21875 11.12109375 C14.81711727 12.74296643 16.41061897 14.3693281 18 16 C14.265625 17.078125 14.265625 17.078125 11.875 16.375 C10 15 10 15 9.125 12.6875 C7.94749285 9.87456624 7.20709292 9.17855784 4.875 7.375 C3.92625 6.59125 2.9775 5.8075 2 5 C2 4.01 2 3.02 2 2 C1.34 2 0.68 2 0 2 C0 1.34 0 0.68 0 0 Z " fill="#E19277" transform="translate(237,177)"/>
<path d="M0 0 C-3.39105614 3.89343482 -3.39105614 3.89343482 -6.5 4.4375 C-9.99106599 5.22298985 -11.01856028 7.13792041 -13 10 C-14.32 9.67 -15.64 9.34 -17 9 C-15.54474941 7.51780033 -14.085701 6.03932861 -12.625 4.5625 C-11.81289062 3.73878906 -11.00078125 2.91507813 -10.1640625 2.06640625 C-6.50701889 -1.42560832 -4.83445334 -0.94587131 0 0 Z " fill="#E49E85" transform="translate(204,141)"/>
<path d="M0 0 C2.125 0.9375 2.125 0.9375 3.125 2.9375 C2.238125 2.834375 1.35125 2.73125 0.4375 2.625 C-3.95571806 3.03945453 -5.0853565 4.62008611 -7.875 7.9375 C-8.90313611 9.24925986 -9.91584432 10.5744893 -10.875 11.9375 C-12.195 11.6075 -13.515 11.2775 -14.875 10.9375 C-6.37475137 -0.13858155 -6.37475137 -0.13858155 0 0 Z " fill="#E49C84" transform="translate(116.875,175.0625)"/>
<path d="M0 0 C0.33 0 0.66 0 1 0 C1 1.65 1 3.3 1 5 C1.99 5.33 2.98 5.66 4 6 C4 6.33 4 6.66 4 7 C12.25 7.33 20.5 7.66 29 8 C29 8.33 29 8.66 29 9 C19.43 9 9.86 9 0 9 C0 6.03 0 3.06 0 0 Z " fill="#1E3A3B" transform="translate(147,289)"/>
<path d="M0 0 C3.73665662 0.55023295 5.18446617 1.94502744 7.5625 4.8125 C8.43068359 5.84310547 8.43068359 5.84310547 9.31640625 6.89453125 C10.9203625 8.90040693 12.47324382 10.93493465 14 13 C12.35 13.33 10.7 13.66 9 14 C8.896875 13.401875 8.79375 12.80375 8.6875 12.1875 C7.90614947 9.70138466 6.85104584 8.77056558 5 7 C5 6.34 5 5.68 5 5 C4.34 5 3.68 5 3 5 C3 4.34 3 3.68 3 3 C2.01 3.33 1.02 3.66 0 4 C0 2.68 0 1.36 0 0 Z " fill="#E6967C" transform="translate(291,80)"/>
<path d="M0 0 C4.88049925 3.9419417 9.0580583 8.11950075 13 13 C11.35 13 9.7 13 8 13 C7.67 12.01 7.34 11.02 7 10 C6.01 9.67 5.02 9.34 4 9 C3.67 8.01 3.34 7.02 3 6 C1.70644173 4.62804426 0.37701298 3.28817344 -1 2 C-0.67 1.34 -0.34 0.68 0 0 Z " fill="#E7997F" transform="translate(256,41)"/>
<path d="M0 0 C0.33 0 0.66 0 1 0 C1.28441048 3.41471446 1.52147767 6.83112664 1.75 10.25 C1.83121094 11.21808594 1.91242188 12.18617188 1.99609375 13.18359375 C2.44132209 20.35671696 2.44132209 20.35671696 0.15625 23.6875 C-2 25 -2 25 -4.25 24.75 C-4.8275 24.5025 -5.405 24.255 -6 24 C-5.360625 23.71125 -4.72125 23.4225 -4.0625 23.125 C-1.84793921 22.17176549 -1.84793921 22.17176549 -1 20 C-0.84876169 18.4804236 -0.75118307 16.95527498 -0.68359375 15.4296875 C-0.64169922 14.53378906 -0.59980469 13.63789063 -0.55664062 12.71484375 C-0.49766602 11.30912109 -0.49766602 11.30912109 -0.4375 9.875 C-0.37272461 8.45767578 -0.37272461 8.45767578 -0.30664062 7.01171875 C-0.20040928 4.67462908 -0.09836824 2.3374317 0 0 Z " fill="#698081" transform="translate(150,394)"/>
<path d="M0 0 C0 0.99 0 1.98 0 3 C0.99 3.33 1.98 3.66 3 4 C3 4.66 3 5.32 3 6 C1.865625 6.28875 0.73125 6.5775 -0.4375 6.875 C-1.613125 7.24625 -2.78875 7.6175 -4 8 C-4.33 8.66 -4.66 9.32 -5 10 C-5.99 10 -6.98 10 -8 10 C-6.34908222 5.70761377 -3.26245434 3.1206085 0 0 Z " fill="#E9A287" transform="translate(72,216)"/>
<path d="M0 0 C0.99 0.33 1.98 0.66 3 1 C-0.20760251 4.80635497 -3.40746109 8.54563567 -7 12 C-7.66 11.67 -8.32 11.34 -9 11 C-6.62245212 6.50907623 -3.6393937 3.47764287 0 0 Z " fill="#E39173" transform="translate(186,151)"/>
<path d="M0 0 C2.475 0.495 2.475 0.495 5 1 C5.33 1.99 5.66 2.98 6 4 C5.67 4.66 5.34 5.32 5 6 C5.66 6.33 6.32 6.66 7 7 C7.625 9.0625 7.625 9.0625 8 11 C3.48709197 7.66437233 1.31793186 5.66710699 0 0 Z " fill="#E69980" transform="translate(72,136)"/>
<path d="M0 0 C0.33 0.99 0.66 1.98 1 3 C-0.4375 5.6875 -0.4375 5.6875 -2 8 C-3.32 7.67 -4.64 7.34 -6 7 C-5.49396008 4.83125748 -5.00016187 3.00032373 -4 1 C-1.9375 0.375 -1.9375 0.375 0 0 Z " fill="#EA9172" transform="translate(301,397)"/>
<path d="M0 0 C0.66 0 1.32 0 2 0 C4.1663492 6.08291273 5.5197276 10.6447755 4 17 C3.67 17 3.34 17 3 17 C2.87882813 16.33613281 2.75765625 15.67226563 2.6328125 14.98828125 C1.7653806 10.41758237 0.75416242 6.31793827 -1 2 C-0.67 1.34 -0.34 0.68 0 0 Z " fill="#7D9193" transform="translate(244,261)"/>
<path d="M0 0 C4.13937592 3.30015998 7.58662205 6.17324411 10 11 C9.34 11 8.68 11 8 11 C8 10.34 8 9.68 8 9 C7.21625 8.690625 6.4325 8.38125 5.625 8.0625 C3 7 3 7 1 6 C0.375 2.9375 0.375 2.9375 0 0 Z " fill="#E9A18C" transform="translate(246,30)"/>
<path d="M0 0 C3.24271506 0.5590888 4.93057424 1.4132178 7 4 C7 4.66 7 5.32 7 6 C5.02 6.33 3.04 6.66 1 7 C0.67 4.69 0.34 2.38 0 0 Z " fill="#E8987F" transform="translate(312,103)"/>
<path d="M0 0 C3.81684226 1.55500981 6.19195732 4.03595495 9 7 C8.34 8.32 7.68 9.64 7 11 C6.6596875 10.1646875 6.6596875 10.1646875 6.3125 9.3125 C5.00796402 6.77527615 5.00796402 6.77527615 2.375 4.375 C1.59125 3.59125 0.8075 2.8075 0 2 C0 1.34 0 0.68 0 0 Z " fill="#E1927A" transform="translate(262,203)"/>
<path d="M0 0 C3.7952131 1.49097658 5.61042731 3.75700849 8 7 C4.28400809 7.20086443 3.22791555 7.1519437 0 5 C-0.1875 2.375 -0.1875 2.375 0 0 Z " fill="#E89B84" transform="translate(247,187)"/>
<path d="M0 0 C3.26008643 3.16952847 6.22237877 6.39937989 9 10 C6 10 6 10 4.3125 8.625 C3 7 3 7 3 5 C2.01 4.67 1.02 4.34 0 4 C0 2.68 0 1.36 0 0 Z " fill="#E5A18B" transform="translate(237,20)"/>
<path d="M0 0 C2.5 2.3125 2.5 2.3125 5 5 C5 5.99 5 6.98 5 8 C4.01 8.33 3.02 8.66 2 9 C1.34 9.66 0.68 10.32 0 11 C0 9.35 0 7.7 0 6 C0.66 6 1.32 6 2 6 C2 5.01 2 4.02 2 3 C1.34 3 0.68 3 0 3 C0 2.01 0 1.02 0 0 Z " fill="#E79B7F" transform="translate(114,109)"/>
<path d="M0 0 C1.32 0.33 2.64 0.66 4 1 C2.54744301 4.82946843 0.57104439 6.12050295 -3 8 C-2.67 6.02 -2.34 4.04 -2 2 C-1.34 2 -0.68 2 0 2 C0 1.34 0 0.68 0 0 Z " fill="#E99C81" transform="translate(308,414)"/>
<path d="M0 0 C1.32 0.33 2.64 0.66 4 1 C3.34 2.65 2.68 4.3 2 6 C1.01 6 0.02 6 -1 6 C-1.33 5.01 -1.66 4.02 -2 3 C-1.34 2.01 -0.68 1.02 0 0 Z " fill="#E69073" transform="translate(75,113)"/>
<path d="M0 0 C6.0546875 0.390625 6.0546875 0.390625 8 1 C9.2578125 3.046875 9.2578125 3.046875 10 5 C8.51800098 4.55090939 7.03944764 4.09043436 5.5625 3.625 C4.73878906 3.36976563 3.91507813 3.11453125 3.06640625 2.8515625 C1 2 1 2 0 0 Z " fill="#E79A83" transform="translate(21,421)"/>
<path d="M0 0 C0 3.51716303 -0.82445585 4.37121748 -3 7 C-2.34 7.33 -1.68 7.66 -1 8 C-1.66 8.66 -2.32 9.32 -3 10 C-5.625 9.625 -5.625 9.625 -8 9 C-7.04270084 7.87411986 -6.08412105 6.7493285 -5.125 5.625 C-4.59132813 4.99851563 -4.05765625 4.37203125 -3.5078125 3.7265625 C-2.38567993 2.44163349 -1.20628025 1.20628025 0 0 Z " fill="#E9A88D" transform="translate(81,207)"/>
<path d="M0 0 C1.125 1.75 1.125 1.75 2 4 C1.125 6.25 1.125 6.25 0 8 C-1.65 7.67 -3.3 7.34 -5 7 C-3.35 4.69 -1.7 2.38 0 0 Z " fill="#ED9A7F" transform="translate(154,186)"/>
<path d="M0 0 C1.65 1.65 3.3 3.3 5 5 C4.01 5 3.02 5 2 5 C2 4.34 2 3.68 2 3 C1.34 3 0.68 3 0 3 C-0.33 3.99 -0.66 4.98 -1 6 C-1.66 6 -2.32 6 -3 6 C-3 4.35 -3 2.7 -3 1 C-2.01 0.67 -1.02 0.34 0 0 Z " fill="#E98F77" transform="translate(270,56)"/>
<path d="M0 0 C0.66 0.33 1.32 0.66 2 1 C1.67 1.99 1.34 2.98 1 4 C0.34 4 -0.32 4 -1 4 C-1.268125 4.639375 -1.53625 5.27875 -1.8125 5.9375 C-3 8 -3 8 -6 9 C-4.68775452 5.06326356 -3.08089673 2.77280706 0 0 Z " fill="#E6A98F" transform="translate(16,12)"/>
<path d="M0 0 C2.97 0.495 2.97 0.495 6 1 C5.01 2.485 5.01 2.485 4 4 C0.875 4.1875 0.875 4.1875 -2 4 C-1.34 2.68 -0.68 1.36 0 0 Z " fill="#597477" transform="translate(144,330)"/>
<path d="M0 0 C2.5 1.3125 2.5 1.3125 5 3 C5 3.99 5 4.98 5 6 C2 6 2 6 0 5 C0 3.35 0 1.7 0 0 Z " fill="#E68D71" transform="translate(306,96)"/>
<path d="M0 0 C-0.33 1.32 -0.66 2.64 -1 4 C-2.65 4.33 -4.3 4.66 -6 5 C-6.33 4.34 -6.66 3.68 -7 3 C-4.49955934 -0.00052879 -4.2621484 0 0 0 Z " fill="#415A5B" transform="translate(190,438)"/>
<path d="M0 0 C1.14926266 0.95421808 2.29430541 1.91352045 3.4375 2.875 C4.07558594 3.40867188 4.71367187 3.94234375 5.37109375 4.4921875 C7 6 7 6 8 8 C6.68 8 5.36 8 4 8 C4 7.34 4 6.68 4 6 C2.68 5.34 1.36 4.68 0 4 C0 2.68 0 1.36 0 0 Z " fill="#E7A88B" transform="translate(205,142)"/>
<path d="M0 0 C2.75457718 0.37994168 3.82020574 0.8073633 5.75 2.875 C7 5 7 5 7 8 C6.34 8 5.68 8 5 8 C3.94228261 6.36935236 2.94726954 4.69719127 2 3 C1.34 2.01 0.68 1.02 0 0 Z " fill="#576D6F" transform="translate(184,421)"/>
<path d="M0 0 C0 3.16880694 -0.2058242 4.43689172 -2 7 C-4.625 7.75 -4.625 7.75 -7 8 C-6.02133662 6.85373678 -5.04205413 5.70800212 -4.0625 4.5625 C-3.51722656 3.92441406 -2.97195312 3.28632813 -2.41015625 2.62890625 C-1.63204305 1.73008851 -0.84063472 0.84063472 0 0 Z " fill="#EA9F85" transform="translate(89,199)"/>
<path d="M0 0 C0.33 0.66 0.66 1.32 1 2 C-1.75520215 4.95929119 -4.46627288 7.03681826 -8 9 C-7.8125 7.1875 -7.8125 7.1875 -7 5 C-4.5625 3.375 -4.5625 3.375 -2 2 C-1.34 1.34 -0.68 0.68 0 0 Z " fill="#E1896E" transform="translate(167,171)"/>
<path d="M0 0 C1.9375 0.375 1.9375 0.375 4 1 C4.33 1.66 4.66 2.32 5 3 C4.34 3 3.68 3 3 3 C2.67 4.32 2.34 5.64 2 7 C1.01 6.67 0.02 6.34 -1 6 C-1 5.34 -1 4.68 -1 4 C-0.01 4 0.98 4 2 4 C1.34 2.68 0.68 1.36 0 0 Z " fill="#EA9174" transform="translate(283,72)"/>
<path d="M0 0 C1.16959987 0.97566112 2.33561177 1.955625 3.5 2.9375 C4.1496875 3.48277344 4.799375 4.02804688 5.46875 4.58984375 C5.9740625 5.05519531 6.479375 5.52054688 7 6 C7 6.33 7 6.66 7 7 C5.35 7 3.7 7 2 7 C1.34 4.69 0.68 2.38 0 0 Z " fill="#E89F86" transform="translate(228,11)"/>
<path d="M0 0 C0.66 0 1.32 0 2 0 C2 2.64 2 5.28 2 8 C1.34 8 0.68 8 0 8 C-0.79953138 4.71303767 -1.09658936 3.28976808 0 0 Z " fill="#335052" transform="translate(189,429)"/>
<path d="M0 0 C2.80736541 1.4036827 2.96708362 3.10783413 4 6 C4.33 6.99 4.66 7.98 5 9 C1.125 7.125 1.125 7.125 0 6 C-0.04080783 4.00041636 -0.04254356 1.99954746 0 0 Z " fill="#576A6C" transform="translate(101,373)"/>
<path d="M0 0 C0.99 1.485 0.99 1.485 2 3 C2.7734375 3.7115625 2.7734375 3.7115625 3.5625 4.4375 C5.23257419 6.25279803 5.58605964 7.59914589 6 10 C3.54896452 9.01958581 2.23241214 8.3486182 0.75 6.125 C0 4 0 4 0 0 Z " fill="#799091" transform="translate(141,336)"/>
<path d="M0 0 C0.79921875 0.00902344 1.5984375 0.01804687 2.421875 0.02734375 C3.02515625 0.03894531 3.6284375 0.05054687 4.25 0.0625 C4.25 0.3925 4.25 0.7225 4.25 1.0625 C3.5075 1.206875 2.765 1.35125 2 1.5 C-0.66117812 1.98717376 -0.66117812 1.98717376 -2.8125 2.75 C-5.36209669 3.16122527 -6.58666008 2.37595638 -8.75 1.0625 C-5.75519083 0.1901588 -3.11424089 -0.04579766 0 0 Z " fill="#F0BDA2" transform="translate(96.75,101.9375)"/>
<path d="M0 0 C2.0625 2.3125 2.0625 2.3125 4 5 C3.67 5.99 3.34 6.98 3 8 C2.01 8.33 1.02 8.66 0 9 C0 6.03 0 3.06 0 0 Z " fill="#E39173" transform="translate(25,392)"/>
<path d="M0 0 C0.33 0 0.66 0 1 0 C1 1.65 1 3.3 1 5 C1.99 5.33 2.98 5.66 4 6 C4 6.66 4 7.32 4 8 C2.68 8.33 1.36 8.66 0 9 C0 6.03 0 3.06 0 0 Z " fill="#314C4E" transform="translate(147,289)"/>
<path d="M0 0 C2.31 1.98 4.62 3.96 7 6 C6.34 6.66 5.68 7.32 5 8 C3.5 6.625 3.5 6.625 2 5 C2 4.34 2 3.68 2 3 C1.34 3 0.68 3 0 3 C0 2.01 0 1.02 0 0 Z " fill="#E4947E" transform="translate(126,184)"/>
<path d="M0 0 C1.65 0 3.3 0 5 0 C3.25 4.875 3.25 4.875 1 6 C0.67 4.02 0.34 2.04 0 0 Z " fill="#E79E87" transform="translate(115,138)"/>
<path d="M0 0 C2.625 0.9375 2.625 0.9375 5 2 C4.34 2.66 3.68 3.32 3 4 C0.375 3.625 0.375 3.625 -2 3 C-2 2.34 -2 1.68 -2 1 C-1.34 0.67 -0.68 0.34 0 0 Z " fill="#EB987A" transform="translate(109,106)"/>
<path d="M0 0 C1.65 1.65 3.3 3.3 5 5 C3.02 5 1.04 5 -1 5 C-0.67 3.35 -0.34 1.7 0 0 Z " fill="#EB9C82" transform="translate(275,61)"/>
<path d="M0 0 C0.99 0 1.98 0 3 0 C3 1.65 3 3.3 3 5 C1.68 4.67 0.36 4.34 -1 4 C-0.67 2.68 -0.34 1.36 0 0 Z " fill="#3C595A" transform="translate(144,419)"/>
<path d="M0 0 C0.66 0.66 1.32 1.32 2 2 C1.625 4.625 1.625 4.625 1 7 C-0.32 7.33 -1.64 7.66 -3 8 C-2.01 5.36 -1.02 2.72 0 0 Z " fill="#EBA48D" transform="translate(158,178)"/>
<path d="M0 0 C2.625 0.375 2.625 0.375 5 1 C4.01 2.485 4.01 2.485 3 4 C0.525 3.01 0.525 3.01 -2 2 C-1.34 1.34 -0.68 0.68 0 0 Z " fill="#EB9478" transform="translate(215,116)"/>
<path d="" fill="#FFFFFF" transform="translate(0,0)"/>
<path d="" fill="#FFFFFF" transform="translate(0,0)"/>
<path d="" fill="#FFFFFF" transform="translate(0,0)"/>
<path d="" fill="#FFFFFF" transform="translate(0,0)"/>
<path d="" fill="#FFFFFF" transform="translate(0,0)"/>
<path d="" fill="#FFFFFF" transform="translate(0,0)"/>
<path d="" fill="#FFFFFF" transform="translate(0,0)"/>
<path d="" fill="#FFFFFF" transform="translate(0,0)"/>
<path d="" fill="#FFFFFF" transform="translate(0,0)"/>
<path d="" fill="#FFFFFF" transform="translate(0,0)"/>
<path d="" fill="#FFFFFF" transform="translate(0,0)"/>
<path d="" fill="#FFFFFF" transform="translate(0,0)"/>
<path d="" fill="#FFFFFF" transform="translate(0,0)"/>
<path d="" fill="#FFFFFF" transform="translate(0,0)"/>
<path d="" fill="#FFFFFF" transform="translate(0,0)"/>
<path d="" fill="#FFFFFF" transform="translate(0,0)"/>
<path d="" fill="#FFFFFF" transform="translate(0,0)"/>
<path d="" fill="#FFFFFF" transform="translate(0,0)"/>
<path d="" fill="#FFFFFF" transform="translate(0,0)"/>
<path d="" fill="#FFFFFF" transform="translate(0,0)"/>
<path d="" fill="#FFFFFF" transform="translate(0,0)"/>
<path d="" fill="#FFFFFF" transform="translate(0,0)"/>
<path d="" fill="#FFFFFF" transform="translate(0,0)"/>
<path d="" fill="#FFFFFF" transform="translate(0,0)"/>
<path d="" fill="#FFFFFF" transform="translate(0,0)"/>
<path d="" fill="#FFFFFF" transform="translate(0,0)"/>
<path d="" fill="#FFFFFF" transform="translate(0,0)"/>
<path d="" fill="#FFFFFF" transform="translate(0,0)"/>
<path d="" fill="#FFFFFF" transform="translate(0,0)"/>
<path d="" fill="#FFFFFF" transform="translate(0,0)"/>
<path d="" fill="#FFFFFF" transform="translate(0,0)"/>
<path d="" fill="#FFFFFF" transform="translate(0,0)"/>
<path d="" fill="#FFFFFF" transform="translate(0,0)"/>
<path d="" fill="#FFFFFF" transform="translate(0,0)"/>
<path d="" fill="#FFFFFF" transform="translate(0,0)"/>
<path d="" fill="#FFFFFF" transform="translate(0,0)"/>
<path d="" fill="#FFFFFF" transform="translate(0,0)"/>
<path d="" fill="#FFFFFF" transform="translate(0,0)"/>
<path d="" fill="#FFFFFF" transform="translate(0,0)"/>
<path d="" fill="#FFFFFF" transform="translate(0,0)"/>
<path d="" fill="#FFFFFF" transform="translate(0,0)"/>
<path d="" fill="#FFFFFF" transform="translate(0,0)"/>
<path d="" fill="#FFFFFF" transform="translate(0,0)"/>
<path d="" fill="#FFFFFF" transform="translate(0,0)"/>
<path d="" fill="#FFFFFF" transform="translate(0,0)"/>
<path d="" fill="#FFFFFF" transform="translate(0,0)"/>
<path d="" fill="#FFFFFF" transform="translate(0,0)"/>
<path d="" fill="#FFFFFF" transform="translate(0,0)"/>
<path d="" fill="#FFFFFF" transform="translate(0,0)"/>
<path d="" fill="#FFFFFF" transform="translate(0,0)"/>
<path d="" fill="#FFFFFF" transform="translate(0,0)"/>
<path d="" fill="#FFFFFF" transform="translate(0,0)"/>
<path d="" fill="#FFFFFF" transform="translate(0,0)"/>
<path d="" fill="#FFFFFF" transform="translate(0,0)"/>
<path d="" fill="#FFFFFF" transform="translate(0,0)"/>
<path d="" fill="#FFFFFF" transform="translate(0,0)"/>
<path d="" fill="#FFFFFF" transform="translate(0,0)"/>
<path d="" fill="#FFFFFF" transform="translate(0,0)"/>
<path d="" fill="#FFFFFF" transform="translate(0,0)"/>
<path d="" fill="#FFFFFF" transform="translate(0,0)"/>
</svg>
